<svg width="44" height="28" viewBox="0 0 44 28" fill="none" xmlns="http://www.w3.org/2000/svg">
<path d="M15.1752 15.6784L15.0322 15.7101L14.4551 16.2873C16.2977 15.8954 18.961 15.6519 21.9156 15.6519C24.8701 15.6519 27.5282 15.8954 29.3761 16.2873L29.9956 15.6678C28.0947 15.2706 25.4155 15.043 22.6145 15.043C19.7923 15.043 17.076 15.2759 15.1752 15.6784Z" fill="#00524C"/>
<path d="M15.0375 15.7055L15.0692 15.5626C15.4717 13.6617 15.7046 10.9454 15.7046 8.12326C15.7046 5.32756 15.4769 2.64305 15.0851 0.742188L14.4603 1.36698C14.8521 3.2096 15.0957 5.87293 15.0957 8.82748C15.0957 11.782 14.8521 14.4401 14.4603 16.288L15.0375 15.7055Z" fill="#00524C"/>
<path d="M22.6143 1.39797C19.8451 1.39797 17.1818 1.17559 15.2756 0.789062C15.6622 2.69522 15.8898 5.35855 15.8898 8.12777C15.8898 10.897 15.6675 13.5603 15.2756 15.4665C17.1818 15.08 19.8451 14.8576 22.6143 14.8576C25.3889 14.8576 28.0469 15.08 29.9531 15.4665C29.5665 13.5603 29.3441 10.9023 29.3441 8.12777C29.3441 5.35855 29.5665 2.69522 29.9531 0.789062C28.0522 1.17559 25.3889 1.39797 22.6143 1.39797Z" fill="url(#paint0_radial_167_27606)"/>
<path d="M24.1499 6.25944C24.1552 6.16413 24.0334 6.02646 23.9857 5.97881L23.9487 5.94704L23.991 5.92586C24.0175 5.91527 24.0281 5.89938 24.0281 5.8835C24.0334 5.81996 23.8745 5.69288 23.7634 5.62935L23.721 5.60287L23.7634 5.5711C23.7686 5.56581 23.7739 5.56581 23.7792 5.56051C23.7528 5.52874 23.7263 5.49697 23.6998 5.44932C23.6786 5.4652 23.6363 5.48638 23.5833 5.48638C23.5039 5.48638 23.4033 5.44402 23.2868 5.3646L23.2815 5.35931C23.2762 5.35401 22.985 5.02573 22.7573 4.8457C22.8738 5.0522 22.9797 5.35931 22.9903 5.40167C23.1386 5.65053 23.255 5.61346 23.255 5.61346L23.2921 5.60287L23.2974 5.63994C23.3292 5.90468 23.4562 5.91527 23.4615 5.91527H23.488V5.94704C23.4933 6.1959 23.6522 6.26473 23.6575 6.27003L23.6733 6.28062L23.6786 6.3018C23.6892 6.51889 23.7634 6.68832 23.7634 6.68832L23.7686 6.69891V6.7095C23.7634 6.78363 23.864 6.9213 23.9434 7.00072C23.9751 6.99543 23.9963 6.97954 24.0122 6.95307C24.0599 6.87894 24.044 6.74127 24.0387 6.69362L24.0334 6.67244L24.0493 6.66185C24.1975 6.53477 24.1128 6.38651 24.1075 6.38122L24.0916 6.35475L24.1181 6.33886C24.1393 6.31239 24.1499 6.29121 24.1499 6.25944Z" fill="white"/>
<path d="M24.9918 6.10714L24.9971 6.09125C25.0659 5.80533 24.8912 5.67825 24.8806 5.67296L24.8594 5.65707L24.8647 5.6306C24.8806 5.57765 24.8806 5.53 24.8541 5.48234C24.78 5.33409 24.547 5.26525 24.547 5.26525L24.5099 5.25466L24.5258 5.2176C24.547 5.17524 24.547 5.13818 24.5311 5.1117C24.4782 5.01639 24.2346 4.99521 24.1499 4.99521H24.1075L24.1234 4.95285C24.1287 4.93697 24.1287 4.92108 24.134 4.9052C24.1287 4.9052 24.1234 4.91049 24.1234 4.91049C24.044 4.91049 23.9593 4.88402 23.8746 4.82578C23.8428 4.86814 23.7581 4.94226 23.5675 4.94226C23.5304 4.94226 23.488 4.94226 23.4457 4.93167H23.4404C23.4351 4.93167 23.0168 4.76753 22.752 4.73576C22.7362 4.73047 22.7203 4.73047 22.7044 4.73047C22.7044 4.73047 22.6991 4.73047 22.6991 4.73576C22.715 4.74635 22.7362 4.76224 22.7573 4.77283C22.7838 4.79401 22.8156 4.81519 22.8474 4.84166C23.0592 5.02169 23.3027 5.29173 23.3292 5.3235C23.4298 5.39762 23.5198 5.43469 23.5886 5.43469C23.6575 5.43469 23.6839 5.39762 23.6892 5.39233L23.6998 5.37645L23.7157 5.35526L23.7369 5.39762C23.774 5.45587 23.8057 5.50352 23.8375 5.53529C23.8481 5.54588 23.8587 5.55647 23.864 5.56177C23.9222 5.62001 23.9699 5.6306 24.0016 5.6306C24.0334 5.6306 24.0493 5.62001 24.0493 5.62001L24.0758 5.59883L24.0917 5.6306C24.2134 5.88475 24.3564 5.91123 24.4146 5.91123C24.4252 5.91123 24.4305 5.91123 24.4305 5.91123L24.4517 5.90593L24.4623 5.92711C24.5947 6.19186 24.7641 6.3507 24.7641 6.3507L24.7694 6.356V6.36129C24.8118 6.47778 25.0024 6.56779 25.0924 6.59956C25.2089 6.44072 24.9971 6.12832 24.9971 6.12302L24.9918 6.10714Z" fill="white"/>
<path d="M25.5108 5.03099C25.4843 4.90391 25.3096 4.80331 25.3096 4.80331L25.2937 4.79272V4.77154C25.3043 4.52268 25.1084 4.49621 25.1031 4.49621L25.0713 4.49091L25.0766 4.45914C25.0819 4.42208 25.0713 4.39031 25.0554 4.36913C25.0184 4.32677 24.9389 4.30029 24.8225 4.30029C24.7483 4.30029 24.6901 4.31089 24.6901 4.31089L24.6424 4.32147L24.653 4.27382C24.6636 4.24205 24.6583 4.22087 24.653 4.20499C24.6424 4.1891 24.6107 4.17851 24.5683 4.17851C24.4359 4.17851 24.2347 4.26323 24.2347 4.26323L24.1871 4.28441L24.1924 4.23146C24.1977 4.19969 24.1924 4.17851 24.1765 4.16263C24.1606 4.14145 24.1182 4.13086 24.0706 4.13086C23.9541 4.13086 23.8005 4.1891 23.7952 4.1891L23.7847 4.1944C23.737 4.22087 23.6735 4.24205 23.5834 4.24205C23.5729 4.30029 23.5305 4.42208 23.3134 4.52798H23.3081C23.3081 4.52798 23.1916 4.55445 23.054 4.59151C22.9745 4.61269 22.8845 4.64446 22.8051 4.67623H22.7998C22.8263 4.68153 22.8528 4.68682 22.8845 4.69212C23.1334 4.74506 23.4193 4.85626 23.4564 4.87214C23.4934 4.87744 23.5305 4.88273 23.5676 4.88273C23.7899 4.88273 23.8376 4.77683 23.8376 4.77154L23.8535 4.73448L23.8853 4.75566C23.97 4.81919 24.0494 4.84567 24.1182 4.84567H24.1235C24.1341 4.84567 24.1447 4.84567 24.1553 4.84037C24.1659 4.83508 24.1765 4.83508 24.1871 4.82978C24.2241 4.81919 24.24 4.79272 24.24 4.79272L24.2612 4.76625L24.2824 4.78742C24.3671 4.86155 24.4518 4.89862 24.5471 4.89862C24.6318 4.89862 24.6848 4.86685 24.6848 4.86685L24.706 4.85626L24.7218 4.87214C24.9072 5.02569 25.1084 5.07864 25.1084 5.08394H25.119L25.1243 5.08923C25.156 5.1263 25.2407 5.14748 25.3625 5.14748C25.4208 5.14748 25.479 5.14218 25.5002 5.13689C25.5161 5.09982 25.5214 5.06805 25.5108 5.03099Z" fill="white"/>
<path d="M23.2923 4.45485C23.5146 4.34366 23.5252 4.22717 23.5252 4.21129V4.20599L23.5199 4.17422V4.16363H23.5411H23.557C23.5994 4.16363 23.6311 4.16363 23.6629 4.15834C23.6735 4.15834 23.6788 4.15304 23.6894 4.15304C23.7159 4.14245 23.7423 4.13716 23.7582 4.12127C23.7688 4.11598 23.7794 4.10539 23.7847 4.10009C23.8217 4.06303 23.827 4.03126 23.827 4.03126L23.8323 3.99949L23.8641 4.00479C23.8853 4.01008 23.9065 4.01008 23.9276 4.01008C24.1077 4.01008 24.1871 3.87771 24.1871 3.87241L24.1977 3.85653L24.2189 3.86182C24.2506 3.86712 24.2877 3.86712 24.3195 3.86712C24.4677 3.86712 24.5789 3.83006 24.5789 3.83006H24.5895H24.5948C24.6001 3.83006 24.6107 3.83535 24.616 3.83535C24.6954 3.83535 24.8278 3.74004 24.886 3.69239C24.886 3.66062 24.8754 3.63414 24.8595 3.61826C24.8013 3.55472 24.6742 3.54943 24.6425 3.54943H24.6266H24.6054L24.5948 3.53354C24.5524 3.45412 24.4995 3.41176 24.4254 3.41176C24.383 3.41176 24.3512 3.42764 24.3512 3.42764L24.3195 3.44353L24.3089 3.41176C24.293 3.3747 24.2665 3.35352 24.2295 3.35352C24.1394 3.35352 24.0177 3.45412 23.9753 3.49118L23.9382 3.52295L23.9276 3.47C23.9171 3.42235 23.8959 3.42235 23.8906 3.42235C23.8217 3.42235 23.6947 3.57061 23.6258 3.66591L23.5941 3.70827L23.5729 3.66062C23.557 3.62355 23.5358 3.61826 23.5199 3.61826C23.5199 3.61826 23.5146 3.61826 23.5094 3.61826C23.4776 3.66062 23.4299 3.69768 23.3611 3.72416C23.3611 3.77711 23.3399 3.883 23.1864 3.96243C23.197 4.01538 23.197 4.12657 23.0699 4.28542L23.0646 4.29071C23.0646 4.29071 22.8951 4.42838 22.7628 4.56075C22.7363 4.58722 22.7151 4.6137 22.6939 4.64017C22.6939 4.64017 22.6939 4.64547 22.6886 4.64547C22.6886 4.64547 22.6886 4.65076 22.6833 4.65076C22.731 4.62958 22.7892 4.60311 22.8475 4.58193C23.0434 4.5131 23.2605 4.46544 23.2923 4.45485Z" fill="white"/>
<path d="M22.7997 4.43235C22.9056 4.33175 23.0115 4.24703 23.0274 4.23115C23.1703 4.04582 23.1227 3.95581 23.1227 3.95052L23.1068 3.92404V3.91875L23.1121 3.91345L23.1386 3.90286C23.1915 3.87639 23.2233 3.84991 23.2498 3.82344C23.2921 3.77579 23.3027 3.73872 23.3027 3.71225C23.3027 3.70166 23.3027 3.69107 23.3027 3.69107L23.2974 3.66989L23.2921 3.6593L23.3133 3.654L23.3239 3.64871C23.4033 3.62223 23.451 3.57987 23.4774 3.53752C23.5198 3.47927 23.5198 3.42632 23.5198 3.42632V3.40514L23.541 3.39985C23.6998 3.3416 23.811 3.23571 23.811 3.23041L23.8163 3.22512H23.8269C23.8851 3.21453 23.9593 3.09275 23.9963 3.00803C23.9804 2.97626 23.9487 2.95508 23.9063 2.95508C23.8322 2.95508 23.7528 3.00273 23.7528 3.00273L23.7369 3.01332L23.721 3.00273C23.6839 2.97626 23.6469 2.96037 23.6151 2.96037C23.5463 2.96037 23.5039 3.01862 23.5039 3.01862L23.4827 3.04509L23.4563 3.02391C23.4404 3.00803 23.4298 3.00273 23.4139 3.00273C23.3398 3.00273 23.255 3.16158 23.2339 3.21453L23.218 3.26218L23.1862 3.21982C23.1756 3.20394 23.165 3.19864 23.165 3.19864C23.1174 3.19864 23.0538 3.35219 23.0274 3.48986L23.0168 3.54281L22.9797 3.50575C22.9691 3.49516 22.9585 3.48986 22.9479 3.48986C22.895 3.79697 22.7626 4.2735 22.6832 4.53295C22.6779 4.54884 22.6779 4.55943 22.6726 4.57002C22.6938 4.54884 22.715 4.52236 22.7361 4.50119C22.752 4.48001 22.7732 4.45883 22.7997 4.43235Z" fill="white"/>
<path d="M21.9473 5.36404L21.942 5.36933C21.8309 5.44876 21.7303 5.49111 21.6455 5.49111C21.5873 5.49111 21.5502 5.46994 21.529 5.45405C21.5026 5.49641 21.4761 5.53347 21.4496 5.56524C21.4549 5.57054 21.4602 5.57583 21.4655 5.57583L21.5079 5.6076L21.4655 5.63408C21.3596 5.69762 21.2008 5.82469 21.2061 5.88823C21.2061 5.90412 21.2219 5.91471 21.2431 5.93059L21.2855 5.95177L21.2484 5.98354C21.2008 6.03119 21.079 6.16886 21.0843 6.26417C21.0843 6.29064 21.1002 6.31712 21.1266 6.333L21.1531 6.34889L21.1372 6.37536C21.1319 6.38066 21.0419 6.52891 21.1955 6.65599L21.2114 6.66658L21.2061 6.68776C21.2061 6.68776 21.169 6.86249 21.2325 6.94721C21.2484 6.96839 21.2696 6.98427 21.2961 6.99486C21.3702 6.91544 21.4761 6.77777 21.4708 6.70364V6.69305V6.68246C21.4708 6.68246 21.5502 6.50773 21.5608 6.29594V6.27476L21.5767 6.26946C21.582 6.26417 21.7408 6.19533 21.7461 5.94647V5.9147H21.7779C21.7832 5.9147 21.9103 5.90412 21.942 5.63937L21.9473 5.59701L21.9791 5.6076C21.9791 5.6076 22.0956 5.64467 22.2439 5.39581C22.2597 5.35345 22.3656 5.04634 22.4768 4.83984C22.2491 5.02516 21.9526 5.35874 21.9473 5.36404Z" fill="white"/>
<path d="M22.482 4.72973C22.2173 4.7615 21.799 4.92564 21.7937 4.92564H21.7884C21.746 4.93094 21.7037 4.93623 21.6666 4.93623C21.476 4.93623 21.3913 4.8621 21.3595 4.81974C21.2748 4.87799 21.1953 4.90446 21.1212 4.90446C21.1159 4.90446 21.1106 4.89917 21.1053 4.89917C21.1053 4.91505 21.1106 4.93094 21.1106 4.94682L21.1265 4.98918H21.0842C20.9941 4.98918 20.7559 5.01036 20.7029 5.10567C20.687 5.13214 20.687 5.1692 20.7082 5.21156L20.7241 5.24863L20.6923 5.25922C20.6923 5.25922 20.4541 5.33335 20.3852 5.47631C20.3641 5.52396 20.3588 5.57162 20.3746 5.62456L20.3799 5.65104L20.3588 5.66692C20.3482 5.67222 20.1734 5.794 20.2423 6.08522L20.2476 6.1011L20.237 6.11699C20.237 6.12228 20.0252 6.43468 20.1417 6.59353C20.2317 6.56176 20.4223 6.47175 20.4647 6.35526L20.47 6.34996L20.4752 6.34467C20.4752 6.34467 20.6447 6.18582 20.7823 5.92108L20.7929 5.8999L20.8141 5.90519C20.8141 5.90519 20.8194 5.90519 20.83 5.90519C20.8882 5.90519 21.0312 5.87872 21.153 5.62456L21.1689 5.59279L21.2006 5.61398C21.2006 5.61398 21.2165 5.62456 21.2483 5.62456C21.2748 5.62456 21.3224 5.61398 21.3807 5.55573C21.3913 5.55044 21.3966 5.53985 21.4071 5.52926C21.4389 5.49749 21.4707 5.44983 21.5077 5.39159L21.5342 5.34923L21.5501 5.37571L21.5607 5.39688C21.5607 5.39688 21.5872 5.43924 21.656 5.43924C21.7248 5.43924 21.8096 5.40218 21.9155 5.32805C21.9419 5.29628 22.1855 5.02624 22.3973 4.84622C22.4291 4.81974 22.4555 4.79856 22.4873 4.77738C22.5085 4.7615 22.5244 4.75091 22.5455 4.74032C22.5403 4.74032 22.5402 4.74032 22.5402 4.74032C22.5138 4.72443 22.4979 4.72443 22.482 4.72973Z" fill="white"/>
<path d="M20.1204 5.07808H20.131C20.131 5.07808 20.3322 5.01984 20.5175 4.86628L20.5334 4.8504L20.5493 4.86099C20.5493 4.86099 20.6075 4.89276 20.687 4.89276C20.777 4.89276 20.867 4.85569 20.9464 4.78157L20.9676 4.76039L20.9888 4.78686C20.9888 4.78686 21.0099 4.80804 21.047 4.82392C21.0576 4.82922 21.0682 4.82922 21.0788 4.83451C21.0894 4.83451 21.1 4.83981 21.1105 4.83981H21.1158C21.1847 4.83981 21.2641 4.80804 21.3488 4.7498L21.3806 4.72862L21.3912 4.76568C21.3912 4.76568 21.4388 4.87687 21.6612 4.87687C21.693 4.87687 21.73 4.87687 21.7724 4.86628C21.8095 4.85569 22.1007 4.7445 22.3495 4.68626C22.376 4.68096 22.4025 4.67567 22.429 4.67037H22.4237C22.3443 4.6386 22.2542 4.61213 22.1748 4.58565C22.0371 4.54859 21.926 4.52212 21.926 4.52212H21.9154C21.6983 4.41622 21.6559 4.29973 21.6453 4.23619C21.5553 4.23619 21.4918 4.21501 21.4494 4.18854L21.4388 4.18324C21.4388 4.18324 21.2853 4.125 21.1688 4.125C21.1158 4.125 21.0788 4.13559 21.0629 4.15677C21.047 4.17265 21.047 4.19383 21.047 4.2309L21.0523 4.28385L21.0046 4.26267C21.0046 4.26267 20.8034 4.17795 20.6711 4.17795C20.6287 4.17795 20.5969 4.18854 20.5863 4.20442C20.5758 4.21501 20.5758 4.24149 20.5811 4.27326L20.5916 4.32091L20.544 4.31032C20.544 4.31032 20.4804 4.29973 20.4063 4.29973C20.2951 4.29973 20.2104 4.32621 20.1733 4.36857C20.1522 4.38974 20.1469 4.42151 20.1522 4.45858V4.49035L20.1204 4.49564C20.1151 4.49564 19.9192 4.52212 19.9298 4.77098V4.79216L19.9139 4.80274C19.9139 4.80274 19.7445 4.90335 19.7127 5.03043C19.7021 5.06749 19.7074 5.09926 19.7286 5.13632C19.7551 5.14162 19.808 5.14691 19.8715 5.14691C19.988 5.14691 20.0727 5.12573 20.1045 5.08867L20.1204 5.07808Z" fill="white"/>
<path d="M22.5402 4.63431C22.519 4.60784 22.4925 4.58137 22.4714 4.55489C22.339 4.41722 22.1748 4.28485 22.1696 4.28485L22.1643 4.27956C22.0372 4.11541 22.0372 4.00422 22.0478 3.95657C21.8942 3.87185 21.873 3.77125 21.873 3.7183C21.8042 3.69182 21.7566 3.64946 21.7248 3.6124H21.7195C21.7036 3.6124 21.6824 3.6177 21.6665 3.65476L21.6454 3.70241L21.6136 3.66005C21.5448 3.56475 21.4124 3.41649 21.3488 3.41649C21.3436 3.41649 21.3224 3.41649 21.3118 3.46414L21.2959 3.51709L21.2588 3.48532C21.2535 3.48532 21.1053 3.34766 20.9994 3.34766C20.9623 3.34766 20.9358 3.36354 20.92 3.4059L20.9094 3.43767L20.8776 3.42178C20.8776 3.42178 20.8458 3.4059 20.8035 3.4059C20.7346 3.4059 20.6764 3.44826 20.634 3.52768L20.6234 3.54886H20.6023H20.5864C20.5493 3.54886 20.4222 3.55416 20.364 3.6177C20.3481 3.63888 20.3375 3.66535 20.3375 3.69182C20.3958 3.73948 20.5228 3.83479 20.6076 3.83479C20.6129 3.83479 20.6234 3.83479 20.6287 3.82949H20.6393H20.6446C20.6446 3.82949 20.7558 3.86656 20.9094 3.86656C20.9464 3.86656 20.9782 3.86126 21.01 3.86126L21.0312 3.85597L21.0417 3.87185C21.047 3.87714 21.1212 4.00952 21.2959 4.00952C21.3171 4.00952 21.3383 4.00952 21.3594 4.00422L21.3859 3.99893L21.3912 4.0307C21.3912 4.0307 21.4018 4.06776 21.4336 4.09953C21.4389 4.10483 21.4495 4.11012 21.46 4.12071C21.4759 4.1313 21.5024 4.14189 21.5289 4.15248C21.5395 4.15248 21.5448 4.15777 21.5553 4.15777C21.5871 4.16307 21.6189 4.16836 21.6612 4.16307H21.6771H21.6983V4.17366L21.693 4.20543V4.21072C21.693 4.22661 21.7036 4.34839 21.926 4.45429C21.9578 4.45958 22.1748 4.50724 22.3655 4.58137C22.4237 4.60255 22.482 4.62372 22.5296 4.6502V4.6449C22.5402 4.63961 22.5402 4.63961 22.5402 4.63431Z" fill="white"/>
<path d="M22.2915 3.48986C22.2809 3.48986 22.2703 3.49516 22.2545 3.50575L22.2174 3.54281L22.2068 3.48986C22.175 3.35219 22.1168 3.19864 22.0797 3.19864C22.0691 3.19864 22.0585 3.20394 22.048 3.21982L22.0162 3.26218L21.995 3.21453C21.9738 3.15628 21.8891 3.00273 21.815 3.00273C21.7991 3.00273 21.7832 3.00803 21.7726 3.02391L21.7461 3.04509L21.725 3.01862C21.725 3.01862 21.6826 2.96037 21.6138 2.96037C21.582 2.96037 21.5449 2.97626 21.5079 3.00273L21.492 3.01332L21.4761 3.00273C21.4761 3.00273 21.3967 2.95508 21.3226 2.95508C21.2749 2.95508 21.2484 2.97096 21.2325 3.00803C21.2749 3.09275 21.349 3.21453 21.402 3.22512H21.4073L21.4126 3.23041C21.4126 3.23041 21.5238 3.3416 21.6826 3.39985L21.6985 3.40514L21.7038 3.42632C21.7038 3.43162 21.7091 3.48457 21.7461 3.53752C21.7726 3.57987 21.8256 3.62223 21.8997 3.654L21.9103 3.6593L21.9315 3.66459L21.9262 3.67518L21.9209 3.69636C21.9209 3.69636 21.9209 3.70695 21.9209 3.71754C21.9209 3.73872 21.9315 3.78108 21.9738 3.82873C22.0003 3.85521 22.0321 3.88168 22.085 3.90816L22.1115 3.91875L22.1168 3.92404V3.92934L22.0956 3.96111C22.0956 3.96111 22.048 4.05112 22.1909 4.23644C22.2121 4.25233 22.3127 4.33704 22.4186 4.43765C22.4451 4.45883 22.4663 4.4853 22.4927 4.51177C22.5139 4.53295 22.5351 4.55943 22.5563 4.58061C22.551 4.57002 22.551 4.55413 22.5457 4.54354C22.4821 4.2735 22.3498 3.79697 22.2915 3.48986Z" fill="white"/>
<path d="M22.8792 3.49587C22.8845 3.47998 22.8845 3.4588 22.8898 3.44292C22.9057 3.35291 22.9109 3.29466 22.9056 3.26819H22.8792L22.8845 3.23112C22.9056 3.00344 22.8898 2.80753 22.8474 2.75458C22.8368 2.74399 22.8315 2.74399 22.8262 2.74399C22.8209 2.74399 22.8103 2.74929 22.805 2.74929L22.768 2.77047L22.7574 2.72811C22.7203 2.54808 22.6568 2.44219 22.6197 2.39453C22.5827 2.44748 22.5138 2.54808 22.4821 2.72811L22.4768 2.77047L22.4397 2.74929C22.4291 2.74399 22.4238 2.74399 22.4185 2.74399C22.4185 2.74399 22.4026 2.74399 22.3973 2.75458C22.3497 2.81283 22.3338 3.00344 22.3603 3.23112L22.3656 3.26819H22.3444C22.3391 3.29466 22.3444 3.3582 22.3603 3.44292C22.3603 3.4588 22.3656 3.47469 22.3709 3.49587C22.3762 3.52234 22.3815 3.54882 22.3868 3.58059C22.4344 3.79768 22.5085 4.09948 22.5985 4.40129C22.5985 4.40659 22.6038 4.41718 22.6038 4.42247C22.6144 4.45424 22.6197 4.48072 22.6303 4.51249C22.6303 4.51778 22.6303 4.51778 22.6303 4.52308C22.6303 4.51778 22.6356 4.51249 22.6356 4.51249C22.6409 4.48072 22.6515 4.45424 22.6621 4.42247C22.6621 4.41718 22.6674 4.40659 22.6674 4.40129C22.7521 4.09948 22.8315 3.79768 22.8792 3.58059C22.8686 3.54882 22.8739 3.51705 22.8792 3.49587Z" fill="white"/>
<path d="M23.5886 9.60176H22.7732L22.9267 8.8393L22.789 8.70163L22.9638 8.008L22.8261 7.93917L23.0061 7.182L22.842 7.06022L22.985 6.41424L22.8208 6.32423L22.9214 5.75238L22.7838 5.66237L22.8049 5.04287C22.8049 5.04287 22.7467 4.84696 22.609 4.73047C22.4767 4.83637 22.4184 5.0111 22.4131 5.03757V5.04287L22.4343 5.66237L22.2966 5.75238L22.4025 6.32423L22.2384 6.41424L22.3813 7.06022L22.2172 7.182L22.3972 7.93917L22.2596 8.008L22.4343 8.70163L22.2966 8.8393L22.4714 9.60706H21.6401C21.6401 9.60706 21.5342 9.65471 21.5712 9.73414C21.6083 9.81356 22.0319 10.2424 22.0689 10.2213C22.1007 10.2001 22.1007 10.0412 22.1272 10.0095C22.1431 9.98829 22.2649 10.1789 22.3496 10.2213C22.3496 10.2213 22.4872 10.1207 22.6143 10.0412C22.7414 10.1207 22.8261 10.2213 22.8261 10.2213C22.9108 10.1736 23.0856 9.983 23.1067 10.0042C23.1279 10.0359 23.1279 10.1948 23.165 10.216C23.2021 10.2371 23.6256 9.80826 23.6627 9.72884C23.6945 9.64412 23.5886 9.60176 23.5886 9.60176Z" fill="white"/>
<path d="M20.3006 9.99877C19.7181 9.67049 18.4315 9.29985 17.4095 9.68108C17.4095 9.68108 18.7703 9.56459 20.5759 10.7665C21.9261 11.6614 23.2286 12.9321 23.4775 13.181L23.8428 12.8209C22.392 11.2643 20.883 10.3271 20.3006 9.99877Z" fill="white"/>
<path d="M25.6059 13.0218C25.6059 13.0218 25.4153 12.7994 25.1982 13.0165C25.0076 13.2071 24.8752 13.2654 24.6899 13.2654C24.441 13.2706 24.1339 13.1277 24.0598 12.9688C24.0598 12.9688 24.0386 12.9106 24.0757 12.8523C24.1286 12.8629 24.1869 12.8523 24.2345 12.81C24.3087 12.7465 24.3193 12.6406 24.2663 12.577C24.2081 12.5082 24.1022 12.5082 24.028 12.577C23.9698 12.63 23.9486 12.7094 23.9751 12.7729C23.9698 12.7941 23.9539 12.81 23.9327 12.8312C23.9327 12.8206 23.9327 12.8047 23.9221 12.7941C23.9062 12.7782 23.8851 12.7782 23.8692 12.7941L23.8427 12.8206L23.4774 13.1806L23.4191 13.2389C23.4032 13.2548 23.4032 13.2759 23.4191 13.2918C23.4244 13.2971 23.4297 13.3024 23.435 13.3024C23.4297 13.3024 23.4244 13.3077 23.4191 13.3077C23.3768 13.3077 23.3238 13.3236 23.2867 13.3554C23.2126 13.4189 23.202 13.5248 23.2603 13.5936C23.3185 13.6572 23.4244 13.6572 23.4985 13.5936C23.5462 13.5513 23.5674 13.493 23.5621 13.4348C23.5727 13.3977 23.5833 13.3607 23.6044 13.3501C23.6468 13.3289 23.6786 13.3501 23.7262 13.403C23.848 13.5513 24.3298 13.8743 24.8646 13.8637C25.2882 13.8531 25.9077 13.4613 25.6059 13.0218Z" fill="white"/>
<path d="M24.9336 9.99877C25.5161 9.67049 26.8027 9.29985 27.8246 9.68108C27.8246 9.68108 26.4639 9.56459 24.6583 10.7665C23.3081 11.6614 22.0056 12.9321 21.7567 13.181L21.3914 12.8209C22.8422 11.2643 24.3512 10.3271 24.9336 9.99877Z" fill="white"/>
<path d="M19.6281 13.0218C19.6281 13.0218 19.8187 12.7994 20.0358 13.0165C20.2264 13.2071 20.3535 13.2654 20.5441 13.2654C20.7876 13.2706 21.0947 13.1277 21.1689 12.9688C21.1689 12.9688 21.19 12.9106 21.153 12.8523C21.1 12.8629 21.0418 12.8523 20.9941 12.81C20.92 12.7465 20.9094 12.6406 20.9677 12.577C21.0259 12.5082 21.1318 12.5082 21.2059 12.577C21.2642 12.63 21.2854 12.7094 21.2589 12.7729C21.2695 12.7941 21.2801 12.81 21.3012 12.8312C21.3012 12.8206 21.3012 12.8047 21.3118 12.7941C21.3277 12.7782 21.3489 12.7782 21.3648 12.7941L21.3913 12.8206L21.7566 13.1806L21.8201 13.2389C21.836 13.2548 21.836 13.2759 21.8201 13.2918C21.8148 13.2971 21.8095 13.3024 21.8043 13.3024C21.8095 13.3024 21.8148 13.3077 21.8201 13.3077C21.8678 13.3077 21.9154 13.3236 21.9525 13.3554C22.0266 13.4189 22.0372 13.5248 21.979 13.5936C21.9207 13.6572 21.8148 13.6572 21.7407 13.5936C21.6931 13.5513 21.6719 13.493 21.6772 13.4348C21.6719 13.3977 21.656 13.3607 21.6348 13.3501C21.5925 13.3289 21.5607 13.3501 21.5183 13.403C21.3965 13.5513 20.9147 13.8743 20.3852 13.8637C19.9405 13.8531 19.3262 13.4613 19.6281 13.0218Z" fill="white"/>
<path d="M1.4134 21.4453C1.36045 21.6783 1.32868 21.8371 1.3075 21.9271C1.66226 22.1813 1.83699 22.3825 1.83699 22.5308C1.83699 22.7373 1.69403 22.9755 1.40281 23.2562C1.11159 23.5368 0.862731 23.6745 0.661525 23.6745C0.566217 23.6745 0.444435 23.6427 0.290883 23.5792C0.137331 23.5156 0.0526129 23.4838 0.0420231 23.4838C0.0208436 23.4838 0.0102539 23.4944 0.0102539 23.5156C0.0102539 23.5844 0.153216 23.6745 0.43914 23.7857C0.703884 23.8863 0.8945 23.9339 1.00569 23.9339C1.23337 23.9339 1.45046 23.7857 1.65167 23.4891C1.87935 23.1661 1.99054 22.8643 1.99054 22.5837C1.99054 22.2872 1.9323 22.0436 1.81581 21.853C1.73109 21.7259 1.59872 21.5936 1.4134 21.4453Z" fill="#00524C"/>
<path d="M7.85734 20.0103L7.42316 19.7402L7.23254 20.0526L7.66143 20.328L7.85734 20.0103Z" fill="#00524C"/>
<path d="M7.73565 20.742L8.17513 21.0068L8.36574 20.6944L7.90509 20.4138L7.75683 20.6626L7.32795 20.3926L7.13733 20.7156L7.59798 20.9856L7.73565 20.742Z" fill="#00524C"/>
<path d="M9.14935 20.7108L9.59412 20.9755L9.78473 20.6631L9.31878 20.3878L9.17582 20.6314L8.74164 20.3613L8.55103 20.6896L9.01168 20.9544L9.14935 20.7108Z" fill="#00524C"/>
<path d="M12.8822 22.0028C12.9299 22.1828 12.9563 22.3099 12.9669 22.3893C12.9034 22.3893 12.8504 22.3946 12.7975 22.3946C12.5063 22.3946 12.3739 22.3681 12.3898 22.3205C12.4639 22.0081 12.5169 21.7963 12.5486 21.6745C12.2945 21.8704 12.1727 22.0187 12.1727 22.1087C12.1727 22.3046 12.1674 22.3999 12.1515 22.3946H11.0184C11.1349 22.0928 11.1931 21.8387 11.1931 21.6322L10.8331 22.0134C10.8331 22.1405 10.8331 22.2199 10.8278 22.2411C10.8119 22.3417 10.7695 22.3946 10.6954 22.3946H9.94354H9.82176C9.7741 22.3946 9.74763 22.3787 9.74233 22.347C9.74233 22.3417 9.74763 22.3046 9.75822 22.2305C9.81646 21.9022 9.84823 21.6533 9.84823 21.4839C9.84823 21.4574 9.84823 21.4415 9.84294 21.4362C9.68939 21.6057 9.5729 21.7486 9.48289 21.8704L9.4723 22.3946H8.4345H8.41861C8.37096 22.3946 8.34448 22.3787 8.33919 22.347C8.33919 22.3417 8.34448 22.3046 8.35507 22.2305C8.41332 21.9022 8.44509 21.6533 8.44509 21.4839C8.44509 21.4574 8.44509 21.4415 8.43979 21.4362C8.28624 21.6057 8.16975 21.7486 8.07974 21.8704L8.06915 22.3946H7.12137H7.02076H6.44892H6.33772C6.17358 22.3681 6.04121 22.1511 5.93531 21.7486C5.93531 21.7539 5.94061 21.7539 5.94061 21.7539C5.9459 21.7486 5.9459 21.6957 5.9459 21.5898C5.9459 21.5263 5.91413 21.4945 5.8453 21.4945C5.7394 21.4945 5.59644 21.5421 5.4323 21.6427C5.29463 21.7222 5.17285 21.8122 5.06695 21.9075C5.04577 21.934 4.99812 22.0399 4.93458 22.2146C4.88693 22.3364 4.82339 22.3999 4.73867 22.3999H4.02386H3.47319H3.27198C3.17138 22.3999 3.09725 22.3787 3.06019 22.3364C3.0443 22.3205 3.02842 22.3046 3.02313 22.2993C3.00195 22.2517 2.95959 21.8916 2.89605 21.2192L2.76897 19.7207C2.65248 19.8795 2.56247 19.996 2.50952 20.0702C2.58894 20.9332 2.65778 21.844 2.71073 22.8023H3.33552H4.10858H4.7016C4.75985 22.8023 4.8128 22.7547 4.86575 22.6594C4.9134 22.5641 4.96105 22.5164 5.00341 22.5164L6.00415 23.0618L6.12593 22.8023H6.33772H7.02076H7.11078H7.82559C7.84677 22.8023 7.88383 22.76 7.93148 22.6805C7.97914 22.6011 8.01091 22.5588 8.0215 22.5588C8.03209 22.5641 8.04797 22.5905 8.07445 22.6435C8.10092 22.6964 8.1221 22.7282 8.14328 22.7441C8.19623 22.7811 8.24918 22.797 8.30213 22.797H8.52981H9.22873C9.24991 22.797 9.28698 22.7547 9.33463 22.6753C9.38228 22.5958 9.41405 22.5535 9.42464 22.5535C9.43523 22.5588 9.45112 22.5852 9.47759 22.6382C9.50406 22.6911 9.52525 22.7229 9.54642 22.7388C9.59937 22.7759 9.65232 22.7917 9.70527 22.7917H9.82705H10.5313C10.563 22.7917 10.6266 22.7653 10.7219 22.7176C10.7695 22.6911 10.796 22.6752 10.8066 22.6594C10.8225 22.6805 10.8437 22.7229 10.8754 22.7917H12.0774C12.1568 22.7229 12.215 22.6752 12.2468 22.6435L12.2786 22.707C12.2998 22.7547 12.3262 22.7811 12.3633 22.7917H13.0358C13.0622 22.76 13.094 22.6964 13.1205 22.5958C13.1681 22.4582 13.1893 22.3205 13.1893 22.1828V21.6057C13.1681 21.6375 13.1046 21.7116 12.9934 21.8281C12.9087 21.9181 12.8663 21.9763 12.8822 22.0028ZM5.77117 22.4052C5.72352 22.4052 5.62821 22.3629 5.47466 22.2781L5.19932 22.1193C5.29463 21.971 5.44289 21.8969 5.6388 21.8969C5.72881 21.8969 5.79235 21.971 5.82941 22.114C5.8453 22.1722 5.86648 22.2622 5.89295 22.3787C5.82941 22.3946 5.78706 22.4052 5.77117 22.4052Z" fill="#00524C"/>
<path d="M15.7095 19.921C15.6142 19.8204 15.5559 19.7145 15.54 19.6139C15.5347 19.5927 15.4871 19.6457 15.3918 19.778C15.2965 19.9104 15.2594 20.011 15.2753 20.0904C15.323 20.1646 15.3706 20.2228 15.413 20.2599C15.4818 20.5935 15.5189 20.8317 15.5189 20.9694C15.5189 21.017 15.5189 21.0594 15.5136 21.0912C15.503 21.1918 15.4659 21.2977 15.3971 21.4089C15.3388 21.5042 15.2912 21.5677 15.2382 21.5995C15.0317 21.2077 14.7988 20.8635 14.5393 20.5723C14.3434 20.3499 14.1422 20.1699 13.9463 20.0269C13.8033 19.9263 13.7133 19.8733 13.6762 19.8733C13.5703 19.8733 13.5227 20.0322 13.528 20.3446C13.5333 20.4611 13.6021 20.5776 13.7398 20.6888C13.8033 20.7417 13.9622 20.8529 14.2163 21.0223C14.2428 20.927 14.264 20.8582 14.2799 20.8052C14.4069 20.9164 14.5658 21.0912 14.7564 21.3189C14.9576 21.5624 15.0582 21.7107 15.0582 21.7636C15.0582 21.8007 14.9523 21.9013 14.7405 22.076C14.5128 22.2613 14.3381 22.3725 14.211 22.399L14.1422 22.8173H15.2965C15.45 22.8173 15.5242 22.7326 15.5242 22.5684C15.5242 22.5314 15.5189 22.489 15.5136 22.4361C15.4447 22.1449 15.3865 21.9542 15.3494 21.8695C15.3494 21.8589 15.3812 21.806 15.4447 21.7054C15.5136 21.5889 15.5665 21.4989 15.593 21.43C15.6989 21.1759 15.7571 20.927 15.7571 20.6888C15.7571 20.6305 15.7571 20.5617 15.7518 20.4876C15.826 20.3922 15.8842 20.3181 15.9213 20.2705C15.9954 20.1805 16.0272 20.1275 16.0113 20.1222C15.9054 20.0851 15.8048 20.0216 15.7095 19.921ZM14.7405 22.4784C14.5923 22.4784 14.5181 22.4678 14.5181 22.4414C14.534 22.4361 14.624 22.3884 14.7882 22.2878C14.9841 22.1713 15.1165 22.0601 15.1853 21.9648C15.2647 22.1554 15.3071 22.3143 15.3071 22.4467C15.0741 22.4625 14.8888 22.4784 14.7405 22.4784Z" fill="#00524C"/>
<path d="M16.8269 19.709C16.6152 20.0584 16.5146 20.2861 16.5304 20.3973C16.6363 21.3928 16.721 22.2399 16.7793 22.9442C16.9064 22.6318 16.9646 22.4041 16.9646 22.2611L16.9117 20.9956C16.8693 20.1643 16.8428 19.7355 16.8269 19.709Z" fill="#00524C"/>
<path d="M18.6377 21.2715C18.5212 21.2715 18.3889 21.3933 18.2353 21.6368C18.0924 21.8698 18.0235 22.0498 18.0288 22.1769C18.0288 22.2987 18.0553 22.4046 18.0977 22.4946C18.1559 22.6111 18.2353 22.6746 18.3465 22.6799C18.4736 22.6905 18.5636 22.6799 18.6219 22.6482C18.7119 22.5952 18.8019 22.4787 18.8866 22.2881C18.9078 22.3516 18.9184 22.4311 18.9184 22.5317C18.9237 22.7382 18.7966 22.9658 18.5424 23.2147C18.3095 23.4424 18.0606 23.6012 17.8117 23.6965C17.7588 23.7124 17.7058 23.723 17.637 23.723C17.5788 23.723 17.4887 23.7071 17.3723 23.6807C17.2558 23.6489 17.1658 23.6383 17.1128 23.6383C17.0757 23.6383 17.0546 23.6542 17.0546 23.6807C17.0546 23.7336 17.2028 23.7866 17.5046 23.8554C17.7429 23.9083 17.9282 23.9348 18.0606 23.9454C18.2141 23.956 18.3677 23.8819 18.5318 23.723C18.6642 23.5959 18.7701 23.4477 18.8495 23.2782C19.0031 22.9553 19.0825 22.6058 19.0825 22.2352C19.0825 22.0128 19.0243 21.7904 18.9131 21.5839C18.8125 21.3721 18.7172 21.2715 18.6377 21.2715ZM18.5477 22.2563C18.4736 22.2563 18.3995 22.2404 18.3253 22.214C18.23 22.1769 18.1824 22.1293 18.1771 22.0657C18.1771 22.0075 18.2141 21.9386 18.2936 21.8592C18.373 21.7798 18.4365 21.7427 18.4948 21.7427C18.5742 21.748 18.643 21.801 18.7066 21.9069C18.7595 22.0022 18.786 22.0975 18.786 22.1822C18.7542 22.2352 18.6748 22.2563 18.5477 22.2563Z" fill="#00524C"/>
<path d="M21.2056 20.5565L21.6451 20.8212L21.8357 20.5088L21.3751 20.2335L21.2268 20.4771L20.7979 20.207L20.6073 20.5353L21.0732 20.8054L21.2056 20.5565Z" fill="#00524C"/>
<path d="M21.9682 21.88C21.9682 21.7529 21.9205 21.6417 21.8199 21.5517C21.7881 21.5252 21.714 21.4617 21.5922 21.377C21.481 21.2976 21.4069 21.2287 21.3645 21.1758L20.9992 21.6523C20.7133 22.0283 20.5703 22.3036 20.5703 22.4836C20.5703 22.6054 20.6286 22.6901 20.7503 22.7431C20.8456 22.7854 20.9568 22.8013 21.0839 22.7854C21.2798 22.7642 21.4493 22.6954 21.5869 22.5842C21.6611 22.5313 21.7352 22.4518 21.8093 22.3512C21.9152 22.1342 21.9682 21.9753 21.9682 21.88ZM21.5658 22.2824C21.4122 22.346 21.2639 22.3777 21.1263 22.3777C20.9727 22.3777 20.8986 22.3142 20.8986 22.1871C20.8986 22.15 20.9092 22.1077 20.9304 22.0653C21.0469 21.8959 21.1475 21.7582 21.2322 21.6523C21.5128 21.8271 21.6611 21.9806 21.6664 22.1183C21.6716 22.1818 21.6399 22.2401 21.5658 22.2824Z" fill="#00524C"/>
<path d="M23.1966 21.4453C23.1437 21.6783 23.1119 21.8371 23.0907 21.9271C23.4455 22.1813 23.6202 22.3825 23.6202 22.5308C23.6202 22.7373 23.4772 22.9755 23.186 23.2562C22.8948 23.5368 22.6512 23.6745 22.4447 23.6745C22.3494 23.6745 22.2276 23.6427 22.0741 23.5792C21.9205 23.5156 21.8358 23.4838 21.8252 23.4838C21.804 23.4838 21.7935 23.4944 21.7935 23.5156C21.7935 23.5844 21.9364 23.6745 22.2223 23.7857C22.4871 23.8863 22.6777 23.9339 22.7889 23.9339C23.0166 23.9339 23.2337 23.7857 23.4349 23.4891C23.6626 23.1661 23.7737 22.8643 23.7737 22.5837C23.7737 22.2872 23.7155 22.0436 23.599 21.853C23.5143 21.7259 23.3819 21.5936 23.1966 21.4453Z" fill="#00524C"/>
<path d="M27.8667 23.6118L28.3009 23.8818L28.4915 23.5588L28.0573 23.3047L27.8667 23.6118Z" fill="#00524C"/>
<path d="M30.3606 20.7108L30.8054 20.9755L30.996 20.6631L30.5353 20.3878L30.3871 20.6314L29.9582 20.3613L29.7676 20.6896L30.2229 20.9544L30.3606 20.7108Z" fill="#00524C"/>
<path d="M32.4097 20.2644C32.2985 20.2061 32.1821 20.1426 32.0656 20.0791C32.0338 20.0632 32.0179 20.042 32.0179 20.0155C32.0179 19.9996 32.0232 19.9785 32.0391 19.9467C32.055 19.9149 32.0603 19.8937 32.0603 19.8779C32.0603 19.862 32.0497 19.8461 32.0232 19.8408C32.0073 19.8249 31.9756 19.8514 31.9385 19.9202L31.732 20.2803C31.7161 20.312 31.7055 20.3438 31.7055 20.3756C31.7055 20.4232 31.732 20.4603 31.7796 20.4921L31.8061 20.5027C31.9597 21.424 32.0391 22.0223 32.0391 22.287C32.0391 22.3506 32.0338 22.3823 32.0232 22.3823H31.1443H31.0225C30.9748 22.3823 30.9483 22.3665 30.9431 22.3347C30.9431 22.3294 30.9483 22.2923 30.9589 22.2182C31.0172 21.8899 31.049 21.6411 31.049 21.4716C31.049 21.4451 31.049 21.4293 31.0437 21.424C30.8901 21.5934 30.7736 21.7364 30.6836 21.8581L30.673 22.3823H29.6352H28.7139L28.6716 22.3559C28.6027 22.3082 28.5709 22.2447 28.5709 22.1652C28.7245 22.0911 28.9363 22.0541 29.2116 22.0541C29.2699 22.0541 29.3175 22.0541 29.3546 22.0593C29.434 21.8793 29.4923 21.7417 29.524 21.6463C29.5028 21.6463 29.4605 21.6463 29.3864 21.6516H29.254C29.0528 21.6516 28.7351 21.5881 28.3009 21.461C28.0097 21.3763 27.7979 21.3287 27.6655 21.3287C27.4325 21.3287 27.2525 21.4769 27.1254 21.7734C27.099 21.8423 27.0831 21.9005 27.0831 21.9482C27.0884 21.9535 27.0884 21.9587 27.0884 21.964C27.2737 21.8264 27.422 21.7575 27.5332 21.7575L27.7502 21.8052C28.052 21.8687 28.2797 21.9164 28.4333 21.9482C28.0785 22.2394 27.7555 22.3823 27.4643 22.3823H26.5695H25.897H25.7964H25.2616H25.0604C24.9598 22.3823 24.8857 22.3612 24.8486 22.3188C24.8328 22.3029 24.8169 22.287 24.8116 22.2817C24.7904 22.2341 24.748 21.874 24.6845 21.2016L24.5574 19.7031C24.4409 19.862 24.3509 19.9785 24.298 20.0526C24.3774 20.9157 24.4462 21.8264 24.4992 22.7847H25.124H25.7964H25.897H26.4795H27.4537C27.639 22.7847 27.7926 22.7265 27.9144 22.6047C27.962 22.5571 28.0468 22.4988 28.1579 22.4247C28.2744 22.3506 28.3539 22.2923 28.4015 22.2394C28.4227 22.4088 28.4386 22.5147 28.4545 22.5624C28.4915 22.7053 28.5551 22.7795 28.6504 22.7795H29.7252H30.44C30.4612 22.7795 30.4983 22.7371 30.5459 22.6577C30.5936 22.5782 30.6254 22.5359 30.636 22.5359C30.6465 22.5412 30.6624 22.5677 30.6889 22.6206C30.7154 22.6736 30.7366 22.7053 30.7577 22.7212C30.8107 22.7583 30.8636 22.7742 30.9166 22.7742H31.0384H32.0815C32.1185 22.7742 32.1609 22.6683 32.1979 22.4618C32.235 22.2659 32.2509 22.1176 32.2509 22.017L32.1185 20.6827C32.1344 20.688 32.1503 20.6933 32.1768 20.6986L32.4097 20.2644Z" fill="#00524C"/>
<path d="M33.2781 19.709C33.0663 20.0584 32.9657 20.2861 32.9816 20.3973C33.0875 21.3928 33.1722 22.2399 33.2305 22.9442C33.3575 22.6318 33.4158 22.4041 33.4158 22.2611L33.3628 20.9956C33.3205 20.1643 33.294 19.7355 33.2781 19.709Z" fill="#00524C"/>
<path d="M35.7878 20.5565L36.2272 20.8212L36.4179 20.5088L35.9625 20.2335L35.809 20.4771L35.3854 20.207L35.1895 20.5353L35.6554 20.8054L35.7878 20.5565Z" fill="#00524C"/>
<path d="M36.5504 21.88C36.5504 21.7529 36.5028 21.6417 36.4022 21.5517C36.3704 21.5252 36.2963 21.4617 36.1745 21.377C36.0633 21.2976 35.9892 21.2287 35.9468 21.1758L35.5815 21.6523C35.2956 22.0283 35.1526 22.3036 35.1526 22.4836C35.1526 22.6054 35.2108 22.6901 35.3326 22.7431C35.4279 22.7854 35.5391 22.8013 35.6662 22.7854C35.8621 22.7642 36.0315 22.6954 36.1692 22.5842C36.2433 22.5313 36.3175 22.4518 36.3916 22.3512C36.4975 22.1342 36.5504 21.9753 36.5504 21.88ZM36.1533 22.2824C35.9998 22.346 35.8515 22.3777 35.7138 22.3777C35.5603 22.3777 35.4862 22.3142 35.4862 22.1871C35.4862 22.15 35.4968 22.1077 35.5179 22.0653C35.6344 21.8959 35.735 21.7582 35.8197 21.6523C36.1004 21.8271 36.2486 21.9806 36.2539 22.1183C36.2539 22.1818 36.2222 22.2401 36.1533 22.2824Z" fill="#00524C"/>
<path d="M37.7789 21.4453C37.7259 21.6783 37.6942 21.8371 37.673 21.9271C38.0277 22.1813 38.2025 22.3825 38.2025 22.5308C38.2025 22.7373 38.0595 22.9755 37.7683 23.2562C37.4771 23.5368 37.2335 23.6745 37.027 23.6745C36.9317 23.6745 36.8099 23.6427 36.6564 23.5792C36.5028 23.5156 36.4181 23.4838 36.4075 23.4838C36.3863 23.4838 36.3757 23.4944 36.3757 23.5156C36.3757 23.5844 36.5187 23.6745 36.8046 23.7857C37.0694 23.8863 37.26 23.9339 37.3712 23.9339C37.5989 23.9339 37.8159 23.7857 38.0224 23.4891C38.2501 23.1661 38.3613 22.8643 38.3613 22.5837C38.3613 22.2872 38.3031 22.0436 38.1866 21.853C38.0966 21.7259 37.9642 21.5936 37.7789 21.4453Z" fill="#00524C"/>
<path d="M39.2454 19.709C39.0336 20.0584 38.933 20.2861 38.9489 20.3973C39.0548 21.3928 39.1395 22.2399 39.1978 22.9442C39.3248 22.6318 39.3831 22.4041 39.3831 22.2611L39.3301 20.9956C39.2931 20.1643 39.2613 19.7355 39.2454 19.709Z" fill="#00524C"/>
<path d="M41.2628 21.853C41.1834 21.7259 41.051 21.5883 40.8657 21.4453C40.8127 21.6783 40.781 21.8371 40.7598 21.9271C41.1145 22.1813 41.2893 22.3825 41.2893 22.5308C41.2893 22.7373 41.1463 22.9755 40.8551 23.2562C40.5639 23.5368 40.3203 23.6745 40.1138 23.6745C40.0185 23.6745 39.8967 23.6427 39.7432 23.5792C39.5896 23.5156 39.5049 23.4838 39.4943 23.4838C39.4731 23.4838 39.4625 23.4944 39.4625 23.5156C39.4625 23.5844 39.6055 23.6745 39.8914 23.7857C40.1562 23.8863 40.3468 23.9339 40.458 23.9339C40.6856 23.9339 40.9027 23.7857 41.1092 23.4891C41.3369 23.1661 41.4481 22.8643 41.4481 22.5837C41.4375 22.2925 41.3793 22.0489 41.2628 21.853Z" fill="#00524C"/>
<path d="M40.9398 20.6046L40.495 20.3398L40.2991 20.6575L40.7491 20.9276L40.9398 20.6046Z" fill="#00524C"/>
<path d="M43.1689 21.5786C43.063 21.3721 42.973 21.2715 42.8936 21.2715C42.7771 21.2715 42.6447 21.3933 42.4912 21.6368C42.3482 21.8698 42.2794 22.0498 42.2847 22.1769C42.2847 22.2987 42.3112 22.4046 42.3535 22.4946C42.4118 22.6111 42.4912 22.6746 42.6024 22.6799C42.7295 22.6905 42.8195 22.6799 42.8777 22.6482C42.9677 22.5952 43.0577 22.4787 43.1425 22.2881C43.1636 22.3516 43.1742 22.4311 43.1742 22.5317C43.1795 22.7382 43.0524 22.9658 42.7983 23.2147C42.5653 23.4424 42.3165 23.6012 42.0676 23.6965C42.0146 23.7124 41.9617 23.723 41.8929 23.723C41.8346 23.723 41.7446 23.7071 41.6281 23.6807C41.5116 23.6489 41.4216 23.6383 41.3687 23.6383C41.3316 23.6383 41.3104 23.6542 41.3104 23.6807C41.3104 23.7336 41.4587 23.7866 41.7605 23.8554C41.9988 23.9083 42.1841 23.9348 42.3165 23.9454C42.47 23.956 42.6236 23.8819 42.7877 23.723C42.9201 23.5959 43.026 23.4477 43.1054 23.2782C43.2589 22.9553 43.3384 22.6058 43.3384 22.2352C43.3384 22.0075 43.2854 21.7904 43.1689 21.5786ZM42.8036 22.2563C42.7295 22.2563 42.6553 22.2404 42.5812 22.214C42.4859 22.1769 42.4382 22.1293 42.4329 22.0657C42.4329 22.0075 42.47 21.9386 42.5494 21.8592C42.6289 21.7798 42.6924 21.7427 42.7506 21.7427C42.8301 21.748 42.8989 21.801 42.9624 21.9069C43.0154 22.0022 43.0419 22.0975 43.0419 22.1822C43.0101 22.2352 42.9254 22.2563 42.8036 22.2563Z" fill="#00524C"/>
<path d="M0.360052 24.8125L0.894836 26.2262L1.44021 24.8125H1.80026V26.6869H1.48786V25.3949L0.990143 26.6869H0.783643L0.312398 25.3949V26.6869H0V24.8125H0.360052Z" fill="#00524C"/>
<path d="M2.3561 25.0772H2.0437V24.8125H2.3508V25.0772H2.3561ZM2.3561 26.6869H2.0437V25.3314H2.3508V26.6869H2.3561Z" fill="#00524C"/>
<path d="M2.57336 25.3317H2.88576V25.4429C2.94401 25.4006 3.00754 25.3635 3.07638 25.3423C3.14521 25.3211 3.21405 25.3105 3.28817 25.3105C3.35701 25.3105 3.42055 25.3211 3.47879 25.337C3.53703 25.3582 3.57939 25.3847 3.62175 25.4217C3.65882 25.4588 3.69059 25.5012 3.71176 25.5541C3.73294 25.6071 3.74353 25.66 3.74353 25.7235V26.6872H3.43643V25.75C3.43643 25.6706 3.42055 25.6124 3.38878 25.5753C3.35701 25.5435 3.31465 25.5223 3.2564 25.5223C3.20346 25.5223 3.1558 25.5329 3.11344 25.5541C3.07108 25.5753 3.02872 25.6018 2.99696 25.6335C2.96519 25.6653 2.93871 25.7024 2.91753 25.7447C2.89635 25.7871 2.89106 25.8294 2.89106 25.8771V26.6872H2.57336V25.3317Z" fill="#00524C"/>
<path d="M4.28891 25.0772H3.98181V24.8125H4.28891V25.0772ZM4.28891 26.6869H3.98181V25.3314H4.28891V26.6869Z" fill="#00524C"/>
<path d="M4.82367 26.2372C4.82367 26.2848 4.83426 26.3272 4.84485 26.3589C4.86074 26.3907 4.87662 26.4172 4.8978 26.4384C4.91898 26.4595 4.94546 26.4754 4.97193 26.486C5.0037 26.4966 5.03547 26.5019 5.06724 26.5019C5.09371 26.5019 5.12548 26.4966 5.15725 26.4913C5.18902 26.486 5.2155 26.4754 5.24197 26.4648C5.26844 26.4542 5.28962 26.4331 5.30551 26.4066C5.32139 26.3854 5.33198 26.3536 5.33198 26.3166C5.33198 26.2848 5.32139 26.2583 5.30551 26.2319C5.28962 26.2107 5.26844 26.1895 5.24197 26.1736C5.2155 26.1577 5.18373 26.1418 5.14666 26.126C5.1096 26.1101 5.07253 26.0995 5.03547 26.0836C4.97723 26.0624 4.91898 26.0412 4.86074 26.0201C4.80249 25.9989 4.74955 25.9724 4.70719 25.9406C4.65953 25.9089 4.62247 25.8718 4.59599 25.8294C4.56423 25.7871 4.55364 25.7341 4.55364 25.6706C4.55364 25.6071 4.56952 25.5541 4.59599 25.5118C4.62247 25.4694 4.65953 25.427 4.70719 25.4006C4.75484 25.3688 4.80779 25.3476 4.87133 25.3317C4.93487 25.3158 4.99841 25.3105 5.06724 25.3105C5.14137 25.3105 5.2102 25.3158 5.27904 25.3317C5.34257 25.3476 5.40082 25.3741 5.44847 25.4059C5.49613 25.4376 5.53319 25.48 5.56496 25.5329C5.59143 25.5859 5.60732 25.6441 5.61261 25.713H5.59143C5.58084 25.713 5.57025 25.713 5.55437 25.713C5.54378 25.713 5.52789 25.713 5.5173 25.713H5.49612H5.30551C5.30021 25.6759 5.28962 25.6494 5.27904 25.6229C5.26315 25.6018 5.24727 25.5806 5.22609 25.5647C5.20491 25.5488 5.18373 25.5382 5.15725 25.5329C5.13078 25.5276 5.1043 25.5223 5.07253 25.5223C5.009 25.5223 4.95605 25.5382 4.92428 25.5647C4.88721 25.5912 4.87133 25.6282 4.87133 25.6706C4.87133 25.7024 4.88192 25.7235 4.8978 25.75C4.91369 25.7712 4.93487 25.7924 4.96134 25.8083C4.98782 25.8241 5.01959 25.84 5.05665 25.8559C5.09371 25.8718 5.13078 25.8824 5.16784 25.8983C5.22609 25.9195 5.28433 25.9406 5.34257 25.9618C5.40082 25.983 5.45377 26.0095 5.49612 26.0412C5.54378 26.073 5.58084 26.1048 5.60732 26.1471C5.63379 26.1895 5.64968 26.2372 5.64968 26.2901C5.64968 26.3642 5.63379 26.4278 5.60202 26.4807C5.57025 26.5337 5.52789 26.576 5.47495 26.6131C5.422 26.6449 5.35846 26.6713 5.28962 26.6872C5.22079 26.7031 5.14666 26.7084 5.06724 26.7084C4.99311 26.7084 4.91898 26.6978 4.85544 26.6766C4.78661 26.6554 4.72837 26.629 4.68071 26.5866C4.62776 26.5495 4.5907 26.4966 4.55893 26.4384C4.52716 26.3801 4.51128 26.3113 4.50598 26.2319H4.82367V26.2372Z" fill="#00524C"/>
<path d="M6.26927 24.9447V25.3313H6.47047V25.5431H6.26927V26.3691C6.26927 26.4167 6.27985 26.4538 6.29574 26.4697C6.31162 26.4856 6.3328 26.4961 6.35928 26.4961C6.36987 26.4961 6.38575 26.4961 6.40693 26.4909C6.42811 26.4856 6.46518 26.4803 6.50753 26.475V26.6762C6.47047 26.6868 6.43341 26.6921 6.39105 26.6974C6.35398 26.7027 6.31692 26.7079 6.28515 26.7079C6.24279 26.7079 6.20043 26.7026 6.16337 26.6921C6.1263 26.6815 6.08924 26.6656 6.06276 26.6444C6.03099 26.6232 6.00982 26.5915 5.99393 26.5597C5.97805 26.5226 5.96746 26.4803 5.96746 26.4326V25.5378H5.75037V25.326H5.95157V24.9395H6.26927V24.9447Z" fill="#00524C"/>
<path d="M6.67676 25.3317H6.95209L6.96798 25.4535C7.00504 25.4059 7.0474 25.3688 7.10035 25.3476C7.1533 25.3211 7.20095 25.3105 7.2592 25.3105C7.27508 25.3105 7.29626 25.3158 7.32273 25.3211C7.34921 25.3264 7.37568 25.3317 7.40216 25.3423V25.5965C7.31744 25.5647 7.26449 25.5488 7.24861 25.5488C7.20625 25.5488 7.16918 25.5594 7.13741 25.5753C7.10564 25.5912 7.07387 25.6176 7.0527 25.6494C7.03152 25.6812 7.01034 25.713 6.99975 25.7553C6.98916 25.7977 6.98386 25.8347 6.98386 25.8824V26.6925H6.67676V25.3317Z" fill="#00524C"/>
<path d="M8.08511 26.2586L8.4028 25.332H8.7205L8.14865 26.9629C8.12747 27.0158 8.10629 27.0635 8.07981 27.1005C8.05334 27.1376 8.02157 27.1694 7.9898 27.1905C7.95803 27.2117 7.92626 27.2329 7.8892 27.2435C7.85743 27.2541 7.82036 27.2594 7.7886 27.2594C7.76212 27.2594 7.73035 27.2594 7.69858 27.2541C7.66681 27.2488 7.62975 27.2382 7.58739 27.2223V26.9946C7.60327 26.9999 7.61916 27.0052 7.63504 27.0105C7.65093 27.0158 7.66681 27.0211 7.68799 27.0317C7.70388 27.037 7.71976 27.0423 7.73035 27.0476C7.74624 27.0529 7.75153 27.0529 7.76212 27.0529C7.77271 27.0529 7.7833 27.0476 7.79389 27.0317C7.80448 27.0211 7.81507 27.0052 7.82566 26.984C7.83625 26.9629 7.84154 26.947 7.85213 26.9258C7.86272 26.9046 7.86802 26.8887 7.87331 26.8675L7.93156 26.6875L7.43384 25.3373H7.76212L8.08511 26.2586Z" fill="#00524C"/>
<path d="M9.3877 26.01C9.3877 25.9147 9.40358 25.8247 9.43005 25.74C9.45653 25.6553 9.49889 25.5811 9.55713 25.5176C9.61008 25.4541 9.67891 25.4011 9.75834 25.3694C9.83776 25.3323 9.93307 25.3164 10.039 25.3164C10.1449 25.3164 10.2349 25.3323 10.3196 25.3694C10.399 25.4064 10.4679 25.4541 10.5261 25.5176C10.5843 25.5811 10.6267 25.6553 10.6532 25.74C10.6796 25.8247 10.6955 25.9147 10.6955 26.01C10.6955 26.1053 10.6796 26.1954 10.6532 26.2801C10.6267 26.3648 10.5843 26.4389 10.5261 26.5025C10.4679 26.566 10.399 26.6137 10.3196 26.6507C10.2402 26.6878 10.1449 26.7037 10.039 26.7037C9.93307 26.7037 9.84306 26.6878 9.75834 26.6507C9.67891 26.6137 9.61008 26.566 9.55713 26.5025C9.50418 26.4389 9.46182 26.3648 9.43005 26.2801C9.40358 26.2007 9.3877 26.1106 9.3877 26.01ZM9.6948 26.01C9.6948 26.0789 9.70009 26.1424 9.71598 26.2007C9.73186 26.2589 9.75304 26.3118 9.78481 26.3542C9.81658 26.3966 9.84835 26.4336 9.89071 26.4601C9.93307 26.4866 9.98072 26.4972 10.0337 26.4972C10.0866 26.4972 10.1343 26.4866 10.1766 26.4601C10.219 26.4336 10.2561 26.4019 10.2878 26.3542C10.3196 26.3118 10.3408 26.2589 10.3567 26.2007C10.3725 26.1424 10.3831 26.0789 10.3831 26.01C10.3831 25.9465 10.3725 25.883 10.3567 25.8194C10.3408 25.7612 10.3196 25.7082 10.2878 25.6659C10.2561 25.6235 10.219 25.5864 10.1766 25.56C10.1343 25.5335 10.0866 25.5229 10.0337 25.5229C9.98072 25.5229 9.93307 25.5335 9.89071 25.56C9.84835 25.5864 9.81129 25.6182 9.78481 25.6659C9.75304 25.7082 9.73186 25.7612 9.71598 25.8194C9.70539 25.883 9.6948 25.9465 9.6948 26.01Z" fill="#00524C"/>
<path d="M11.0558 25.331V25.0345C11.0558 24.9922 11.0611 24.9604 11.0769 24.9233C11.0928 24.8916 11.114 24.8598 11.1458 24.8333C11.1775 24.8069 11.2093 24.791 11.2517 24.7751C11.294 24.7592 11.3417 24.7539 11.3946 24.7539C11.4264 24.7539 11.4582 24.7592 11.5005 24.7698C11.5429 24.7804 11.58 24.8016 11.617 24.8227V25.0292C11.5747 25.0134 11.5376 24.9975 11.5058 24.9869C11.4794 24.9763 11.4635 24.971 11.4582 24.971C11.4317 24.971 11.4105 24.9763 11.3946 24.9922C11.3787 25.0081 11.3682 25.0345 11.3682 25.0663V25.331H11.5958V25.5481H11.3682V26.6865H11.0558V25.5481H10.8334V25.331H11.0558Z" fill="#00524C"/>
<path d="M12.66 25.7229C12.66 25.8605 12.6759 25.977 12.7077 26.0776C12.7394 26.1782 12.7818 26.2629 12.8347 26.3265C12.8877 26.39 12.9512 26.443 13.0148 26.4747C13.0836 26.5065 13.1524 26.5224 13.2213 26.5224C13.2901 26.5224 13.3589 26.5065 13.4172 26.48C13.4754 26.4536 13.5231 26.4112 13.5707 26.3635C13.6131 26.3159 13.6502 26.2629 13.6766 26.1994C13.7031 26.1412 13.7243 26.0776 13.7402 26.0141H14.0526C14.0314 26.1147 13.9996 26.21 13.9573 26.2947C13.9149 26.3847 13.8567 26.4589 13.7878 26.5224C13.719 26.5859 13.6343 26.6389 13.5443 26.6759C13.4489 26.713 13.343 26.7342 13.2266 26.7342C13.0942 26.7342 12.9724 26.713 12.8665 26.6654C12.7606 26.6177 12.6653 26.5542 12.5912 26.4642C12.517 26.3794 12.4535 26.2682 12.4164 26.1465C12.3741 26.0194 12.3529 25.8764 12.3529 25.7176C12.3529 25.6382 12.3635 25.5534 12.3794 25.474C12.3953 25.3946 12.4217 25.3205 12.4588 25.2463C12.4906 25.1775 12.5329 25.1087 12.5859 25.0504C12.6335 24.9922 12.6918 24.9392 12.7606 24.8916C12.8241 24.8492 12.8983 24.8122 12.9777 24.791C13.0571 24.7645 13.1418 24.7539 13.2372 24.7539C13.3536 24.7539 13.4595 24.7698 13.5548 24.8016C13.6449 24.8333 13.7296 24.8757 13.7984 24.9339C13.8672 24.9869 13.9255 25.0557 13.9731 25.1298C14.0208 25.204 14.0526 25.2887 14.079 25.3787H13.7613C13.7137 25.241 13.6449 25.1404 13.5601 25.0716C13.4754 25.0028 13.3695 24.971 13.2372 24.971C13.1524 24.971 13.0783 24.9922 13.0095 25.0292C12.9406 25.0716 12.8824 25.1245 12.8294 25.1934C12.7818 25.2622 12.7394 25.3416 12.713 25.4317C12.6706 25.527 12.66 25.6223 12.66 25.7229Z" fill="#00524C"/>
<path d="M14.2538 26.01C14.2538 25.9147 14.2697 25.8247 14.2961 25.74C14.3226 25.6553 14.365 25.5811 14.4232 25.5176C14.4762 25.4541 14.545 25.4011 14.6244 25.3694C14.7038 25.3323 14.7992 25.3164 14.9051 25.3164C15.011 25.3164 15.101 25.3323 15.1857 25.3694C15.2651 25.4064 15.3339 25.4541 15.3922 25.5176C15.4504 25.5811 15.4928 25.6553 15.5193 25.74C15.5457 25.8247 15.5616 25.9147 15.5616 26.01C15.5616 26.1053 15.5457 26.1954 15.5193 26.2801C15.4928 26.3648 15.4504 26.4389 15.3922 26.5025C15.3339 26.566 15.2651 26.6137 15.1857 26.6507C15.1063 26.6878 15.011 26.7037 14.9051 26.7037C14.7992 26.7037 14.7091 26.6878 14.6244 26.6507C14.545 26.6137 14.4762 26.566 14.4232 26.5025C14.3703 26.4389 14.3279 26.3648 14.2961 26.2801C14.2697 26.2007 14.2538 26.1106 14.2538 26.01ZM14.5662 26.01C14.5662 26.0789 14.5715 26.1424 14.5874 26.2007C14.6032 26.2589 14.6244 26.3118 14.6562 26.3542C14.688 26.3966 14.7197 26.4336 14.7621 26.4601C14.8045 26.4866 14.8521 26.4972 14.9051 26.4972C14.958 26.4972 15.0057 26.4866 15.048 26.4601C15.0904 26.4336 15.1274 26.4019 15.1592 26.3542C15.191 26.3118 15.2122 26.2589 15.228 26.2007C15.2439 26.1424 15.2545 26.0789 15.2545 26.01C15.2545 25.9465 15.2439 25.883 15.228 25.8194C15.2122 25.7612 15.191 25.7082 15.1592 25.6659C15.1274 25.6235 15.0904 25.5864 15.048 25.56C15.0057 25.5335 14.958 25.5229 14.9051 25.5229C14.8521 25.5229 14.8045 25.5335 14.7621 25.56C14.7197 25.5864 14.6827 25.6182 14.6562 25.6659C14.6244 25.7082 14.6032 25.7612 14.5874 25.8194C14.5715 25.883 14.5662 25.9465 14.5662 26.01Z" fill="#00524C"/>
<path d="M15.7733 25.3317H16.0804V25.4323C16.1334 25.39 16.1916 25.3582 16.2552 25.337C16.3187 25.3158 16.3769 25.3105 16.4352 25.3105C16.504 25.3105 16.5623 25.3264 16.6258 25.3529C16.684 25.3794 16.737 25.427 16.7846 25.4906C16.8111 25.4588 16.8429 25.4323 16.8747 25.4111C16.9064 25.39 16.9435 25.3688 16.9806 25.3529C17.0176 25.337 17.0547 25.3264 17.0917 25.3211C17.1288 25.3158 17.1659 25.3105 17.2029 25.3105C17.2718 25.3105 17.3353 25.3211 17.3936 25.3423C17.4518 25.3635 17.4994 25.3953 17.5418 25.4323C17.5842 25.4694 17.6159 25.5118 17.6371 25.5647C17.6583 25.6176 17.6742 25.6706 17.6742 25.7288V26.6872H17.3671V25.7818C17.3671 25.7288 17.3618 25.6918 17.3459 25.6547C17.3353 25.6229 17.3194 25.5965 17.2982 25.5753C17.2771 25.5541 17.2559 25.5435 17.2347 25.5329C17.2135 25.5276 17.1871 25.5223 17.1659 25.5223C17.1341 25.5223 17.097 25.5329 17.0653 25.5488C17.0335 25.5647 17.0017 25.5912 16.9753 25.6176C16.9488 25.6494 16.9276 25.6812 16.9064 25.7235C16.8905 25.7659 16.8799 25.8083 16.8799 25.8559V26.6819H16.5728V25.7765C16.5728 25.7235 16.5675 25.6865 16.557 25.6494C16.5464 25.6176 16.5305 25.5912 16.5093 25.57C16.4934 25.5488 16.4722 25.5382 16.4511 25.5276C16.4299 25.5223 16.4087 25.517 16.3875 25.517C16.3452 25.517 16.3028 25.5276 16.2657 25.5488C16.2287 25.57 16.1969 25.6018 16.1704 25.6335C16.144 25.6653 16.1228 25.7077 16.1069 25.7447C16.091 25.7871 16.0857 25.8241 16.0857 25.8612V26.6766H15.7786V25.3317H15.7733Z" fill="#00524C"/>
<path d="M17.9072 25.3317H18.2143V25.4323C18.2673 25.39 18.3255 25.3582 18.3891 25.337C18.4526 25.3158 18.5108 25.3105 18.5691 25.3105C18.6379 25.3105 18.6962 25.3264 18.7597 25.3529C18.8179 25.3794 18.8709 25.427 18.9185 25.4906C18.945 25.4588 18.9768 25.4323 19.0086 25.4111C19.0403 25.39 19.0774 25.3688 19.1145 25.3529C19.1515 25.337 19.1886 25.3264 19.2257 25.3211C19.2627 25.3158 19.2998 25.3105 19.3368 25.3105C19.4057 25.3105 19.4692 25.3211 19.5275 25.3423C19.5857 25.3635 19.6334 25.3953 19.6757 25.4323C19.7181 25.4694 19.7498 25.5118 19.771 25.5647C19.7922 25.6176 19.8081 25.6706 19.8081 25.7288V26.6872H19.501V25.7818C19.501 25.7288 19.4957 25.6918 19.4798 25.6547C19.4692 25.6229 19.4533 25.5965 19.4322 25.5753C19.411 25.5541 19.3898 25.5435 19.3686 25.5329C19.3474 25.5276 19.321 25.5223 19.2998 25.5223C19.268 25.5223 19.2309 25.5329 19.1992 25.5488C19.1674 25.5647 19.1356 25.5912 19.1092 25.6176C19.0827 25.6494 19.0615 25.6812 19.0403 25.7235C19.0244 25.7659 19.0139 25.8083 19.0139 25.8559V26.6819H18.7068V25.7765C18.7068 25.7235 18.7015 25.6865 18.6909 25.6494C18.6803 25.6176 18.6644 25.5912 18.6432 25.57C18.6273 25.5488 18.6062 25.5382 18.585 25.5276C18.5638 25.5223 18.5426 25.517 18.5214 25.517C18.4791 25.517 18.4367 25.5276 18.3997 25.5488C18.3626 25.57 18.3308 25.6018 18.3043 25.6335C18.2779 25.6653 18.2567 25.7077 18.2408 25.7447C18.2249 25.7871 18.2196 25.8241 18.2196 25.8612V26.6766H17.9125V25.3317H17.9072Z" fill="#00524C"/>
<path d="M20.3537 26.0683C20.359 26.1265 20.3696 26.1795 20.3854 26.2324C20.4013 26.2854 20.4278 26.333 20.4596 26.3701C20.4913 26.4124 20.5231 26.4442 20.5655 26.4654C20.6078 26.4866 20.6502 26.5025 20.6978 26.5025C20.8514 26.5025 20.9626 26.4177 21.0208 26.243H21.3068C21.2909 26.3171 21.2644 26.386 21.222 26.4442C21.185 26.5025 21.1373 26.5554 21.0791 26.5925C21.0261 26.6348 20.9626 26.6613 20.8938 26.6878C20.8249 26.709 20.7561 26.7196 20.6873 26.7196C20.5866 26.7196 20.4966 26.6984 20.4119 26.6613C20.3325 26.6242 20.2637 26.5713 20.2054 26.5025C20.1472 26.4336 20.1048 26.3595 20.073 26.2748C20.0413 26.1901 20.0254 26.0948 20.0254 25.9994C20.0254 25.9094 20.0413 25.8194 20.073 25.74C20.1048 25.6553 20.1472 25.5864 20.2054 25.5229C20.2637 25.4594 20.3325 25.4117 20.4119 25.3747C20.4913 25.3376 20.5866 25.3164 20.6873 25.3164C20.7826 25.3164 20.8726 25.3323 20.952 25.3641C21.0314 25.3958 21.095 25.4435 21.1532 25.5017C21.2061 25.56 21.2485 25.6288 21.2803 25.7082C21.312 25.7877 21.3226 25.8777 21.3226 25.973V26.0736H20.3537V26.0683ZM21.0155 25.8777C21.0102 25.8247 21.0049 25.7824 20.9891 25.74C20.9732 25.6976 20.952 25.6606 20.9202 25.6288C20.8938 25.597 20.8567 25.5706 20.8196 25.5547C20.7773 25.5388 20.7349 25.5282 20.6873 25.5282C20.6449 25.5282 20.6025 25.5388 20.5655 25.5547C20.5284 25.5759 20.4966 25.597 20.4649 25.6288C20.4384 25.6606 20.4119 25.6976 20.396 25.74C20.3801 25.7824 20.3696 25.8247 20.3643 25.8724H21.0155V25.8777Z" fill="#00524C"/>
<path d="M21.5237 25.3317H21.799L21.8149 25.4535C21.852 25.4059 21.8943 25.3688 21.9473 25.3476C22.0002 25.3211 22.0479 25.3105 22.1061 25.3105C22.122 25.3105 22.1432 25.3158 22.1697 25.3211C22.1961 25.3264 22.2226 25.3317 22.2491 25.3423V25.5965C22.1644 25.5647 22.1114 25.5488 22.0955 25.5488C22.0532 25.5488 22.0161 25.5594 21.9843 25.5753C21.9526 25.5912 21.9208 25.6176 21.8996 25.6494C21.8784 25.6812 21.8573 25.713 21.8467 25.7553C21.8361 25.7977 21.8308 25.8347 21.8308 25.8824V26.6925H21.5237V25.3317Z" fill="#00524C"/>
<path d="M23.3027 25.7824C23.2762 25.687 23.2444 25.6235 23.1968 25.5864C23.1544 25.5494 23.0962 25.5282 23.0274 25.5282C22.9744 25.5282 22.932 25.5388 22.8897 25.5653C22.8473 25.5917 22.8156 25.6235 22.7891 25.6659C22.7626 25.7082 22.7414 25.7559 22.7255 25.8141C22.7097 25.8724 22.7044 25.9306 22.7044 25.9889C22.7044 26.0524 22.7097 26.1159 22.7255 26.1795C22.7414 26.243 22.7626 26.296 22.7891 26.3436C22.8156 26.3913 22.8526 26.4283 22.8897 26.4601C22.9268 26.4919 22.9744 26.5025 23.0221 26.5025C23.0591 26.5025 23.0909 26.4919 23.1227 26.476C23.1544 26.4601 23.1809 26.4389 23.2021 26.4072C23.2233 26.3807 23.2444 26.3436 23.2603 26.3066C23.2762 26.2695 23.2868 26.2271 23.2974 26.1848H23.6204C23.6098 26.2695 23.5886 26.3436 23.5568 26.4072C23.5251 26.4707 23.4827 26.5289 23.4298 26.5766C23.3768 26.6242 23.3186 26.656 23.2444 26.6825C23.1756 26.709 23.0962 26.7196 23.0115 26.7196C22.9056 26.7196 22.8103 26.6984 22.7308 26.656C22.6514 26.6137 22.5879 26.5554 22.5402 26.4866C22.4873 26.4177 22.4502 26.3383 22.429 26.2536C22.4079 26.1689 22.392 26.0789 22.392 25.9942C22.392 25.8988 22.4079 25.8088 22.4396 25.7294C22.4714 25.6447 22.5137 25.5759 22.5667 25.5123C22.6196 25.4541 22.6885 25.4011 22.7679 25.3694C22.8473 25.3323 22.932 25.3164 23.0274 25.3164C23.1121 25.3164 23.1915 25.327 23.255 25.3535C23.3239 25.3747 23.3821 25.4117 23.4298 25.4541C23.4774 25.4964 23.5198 25.5441 23.5515 25.6023C23.5833 25.6606 23.6045 25.7241 23.6204 25.7877H23.3027V25.7824Z" fill="#00524C"/>
<path d="M24.1394 26.0683C24.1447 26.1265 24.1553 26.1795 24.1712 26.2324C24.1871 26.2854 24.2136 26.333 24.2453 26.3701C24.2771 26.4124 24.3089 26.4442 24.3512 26.4654C24.3936 26.4866 24.436 26.5025 24.4836 26.5025C24.6372 26.5025 24.7484 26.4177 24.8066 26.243H25.0925C25.0766 26.3171 25.0502 26.386 25.0078 26.4442C24.9707 26.5025 24.9231 26.5554 24.8648 26.5925C24.8119 26.6348 24.7484 26.6613 24.6795 26.6878C24.6107 26.709 24.5419 26.7196 24.473 26.7196C24.3724 26.7196 24.2824 26.6984 24.1977 26.6613C24.1183 26.6242 24.0494 26.5713 23.9912 26.5025C23.9329 26.4336 23.8906 26.3595 23.8588 26.2748C23.827 26.1901 23.8112 26.0948 23.8112 25.9994C23.8112 25.9094 23.827 25.8194 23.8588 25.74C23.8906 25.6553 23.9329 25.5864 23.9912 25.5229C24.0494 25.4594 24.1183 25.4117 24.1977 25.3747C24.2771 25.3376 24.3724 25.3164 24.473 25.3164C24.5683 25.3164 24.6583 25.3323 24.7378 25.3641C24.8172 25.3958 24.8807 25.4435 24.939 25.5017C24.9919 25.56 25.0343 25.6288 25.066 25.7082C25.0978 25.7877 25.1084 25.8777 25.1084 25.973V26.0736H24.1394V26.0683ZM24.8013 25.8777C24.796 25.8247 24.7907 25.7824 24.7748 25.74C24.7589 25.6976 24.7378 25.6606 24.706 25.6288C24.6795 25.597 24.6425 25.5706 24.6054 25.5547C24.563 25.5388 24.5207 25.5282 24.473 25.5282C24.4307 25.5282 24.3883 25.5388 24.3512 25.5547C24.3142 25.5759 24.2824 25.597 24.2506 25.6288C24.2242 25.6606 24.1977 25.6976 24.1818 25.74C24.1659 25.7824 24.1553 25.8247 24.15 25.8724H24.8013V25.8777Z" fill="#00524C"/>
<path d="M25.9026 25.7288C25.9079 25.6547 25.9238 25.5965 25.9609 25.5435C25.9979 25.4906 26.0403 25.4482 26.0932 25.4111C26.1462 25.3794 26.2097 25.3529 26.2733 25.337C26.3368 25.3211 26.4056 25.3105 26.4692 25.3105C26.5433 25.3105 26.6121 25.3158 26.681 25.3317C26.7498 25.3476 26.808 25.3688 26.861 25.4006C26.9139 25.4323 26.9563 25.4747 26.9881 25.5276C27.0198 25.5806 27.0357 25.6441 27.0357 25.713V26.4013C27.0357 26.4225 27.041 26.4437 27.0463 26.4648C27.0516 26.486 27.0622 26.4913 27.0728 26.4913C27.0781 26.4913 27.1204 26.4807 27.1946 26.4542V26.6713C27.1522 26.6819 27.1151 26.6925 27.0887 26.6978C27.0622 26.7031 27.0304 26.7084 27.004 26.7084C26.9457 26.7084 26.8981 26.6925 26.8557 26.666C26.8133 26.6396 26.7816 26.5972 26.7604 26.5443C26.7233 26.5813 26.6916 26.6078 26.6545 26.629C26.6174 26.6502 26.5804 26.666 26.5433 26.6766C26.5062 26.6872 26.4692 26.6978 26.4321 26.7031C26.395 26.7084 26.3527 26.7084 26.3156 26.7084C26.2521 26.7084 26.1938 26.6978 26.1409 26.6819C26.0879 26.666 26.0403 26.6396 25.9979 26.6078C25.9556 26.576 25.9291 26.5337 25.9026 26.486C25.8814 26.4384 25.8708 26.3854 25.8708 26.3272C25.8708 26.2636 25.8814 26.2107 25.9079 26.1683C25.9344 26.126 25.9662 26.0889 26.0032 26.0624C26.0456 26.0307 26.0879 26.0095 26.1409 25.9883C26.1938 25.9671 26.2468 25.9512 26.2997 25.9353C26.3527 25.9195 26.4056 25.9089 26.4586 25.8983C26.5115 25.8877 26.5539 25.8718 26.5962 25.8559C26.6386 25.84 26.6704 25.8189 26.6916 25.7977C26.718 25.7765 26.7286 25.7447 26.7286 25.713C26.7286 25.6441 26.7074 25.5965 26.6598 25.5647C26.6121 25.5329 26.5486 25.517 26.4692 25.517C26.4374 25.517 26.4056 25.5223 26.3792 25.5276C26.3527 25.5329 26.3262 25.5488 26.305 25.5647C26.2839 25.5806 26.2627 25.6018 26.2521 25.6282C26.2362 25.6547 26.2256 25.6865 26.2203 25.7235H25.9026V25.7288ZM26.7286 26.0042C26.7021 26.0201 26.6757 26.0359 26.6386 26.0465C26.6015 26.0571 26.5645 26.0677 26.5221 26.0836C26.4798 26.0942 26.4427 26.1101 26.4003 26.1207C26.358 26.1365 26.3209 26.1524 26.2891 26.1683C26.2574 26.1895 26.2309 26.2107 26.2097 26.2372C26.1885 26.2636 26.178 26.2954 26.178 26.3325C26.178 26.3642 26.1832 26.3907 26.1938 26.4172C26.2044 26.4384 26.215 26.4595 26.2309 26.4701C26.2468 26.486 26.2627 26.4913 26.2838 26.4966C26.305 26.5019 26.3209 26.5072 26.3421 26.5072C26.4109 26.5072 26.4798 26.486 26.5433 26.4384C26.6121 26.3907 26.6704 26.3219 26.7233 26.2319V26.0042H26.7286Z" fill="#00524C"/>
<path d="M27.3904 25.3317H27.7028V25.4429C27.761 25.4006 27.8246 25.3635 27.8934 25.3423C27.9622 25.3211 28.0311 25.3105 28.1052 25.3105C28.174 25.3105 28.2376 25.3211 28.2958 25.337C28.354 25.3582 28.3964 25.3847 28.4388 25.4217C28.4758 25.4588 28.5076 25.5012 28.5288 25.5541C28.55 25.6071 28.5605 25.66 28.5605 25.7235V26.6872H28.2534V25.75C28.2534 25.6706 28.2376 25.6124 28.2058 25.5753C28.174 25.5435 28.1317 25.5223 28.0734 25.5223C28.0205 25.5223 27.9728 25.5329 27.9305 25.5541C27.8881 25.5753 27.8457 25.6018 27.814 25.6335C27.7822 25.6653 27.7557 25.7024 27.7345 25.7447C27.7134 25.7871 27.7081 25.8294 27.7081 25.8771V26.6872H27.3957V25.3317H27.3904Z" fill="#00524C"/>
<path d="M29.9744 26.688H29.6673V26.6033C29.625 26.6404 29.5773 26.6668 29.5244 26.688C29.4714 26.7092 29.4185 26.7198 29.3602 26.7198C29.2596 26.7198 29.1749 26.7039 29.1008 26.6668C29.0266 26.6298 28.9631 26.5821 28.9101 26.5186C28.8572 26.455 28.8201 26.3809 28.7937 26.2962C28.7672 26.2115 28.7566 26.1215 28.7566 26.0209C28.7566 25.9256 28.7672 25.8302 28.7937 25.7455C28.8201 25.6608 28.8572 25.5867 28.9048 25.5231C28.9578 25.4596 29.016 25.4067 29.0902 25.3749C29.1643 25.3378 29.249 25.3219 29.3496 25.3219C29.4026 25.3219 29.4555 25.3325 29.5085 25.3537C29.5614 25.3749 29.6144 25.4014 29.662 25.4384V24.8242H29.9691V26.688H29.9744ZM29.6673 25.9944C29.6673 25.9308 29.6567 25.8673 29.6461 25.8091C29.6302 25.7508 29.6144 25.7032 29.5879 25.6608C29.5614 25.6185 29.5296 25.5867 29.4979 25.5602C29.4608 25.5337 29.4185 25.5231 29.3761 25.5231C29.3284 25.5231 29.2861 25.5337 29.249 25.5602C29.212 25.5867 29.1802 25.6185 29.1537 25.6661C29.1272 25.7085 29.1061 25.7614 29.0955 25.8197C29.0796 25.8779 29.0743 25.9414 29.0743 26.0103C29.0743 26.0791 29.0796 26.1426 29.0955 26.2009C29.1114 26.2591 29.1272 26.3121 29.1537 26.3544C29.1802 26.3968 29.212 26.4339 29.249 26.455C29.2861 26.4815 29.3284 26.4921 29.3761 26.4921C29.4237 26.4921 29.4661 26.4815 29.5032 26.455C29.5402 26.4286 29.572 26.3968 29.5985 26.3544C29.625 26.3121 29.6408 26.2591 29.6567 26.2009C29.6726 26.1426 29.6779 26.0791 29.6779 26.0103V25.9944H29.6673Z" fill="#00524C"/>
<path d="M31.1287 24.8125H30.8163V26.6869H31.1287V24.8125Z" fill="#00524C"/>
<path d="M31.4039 25.3317H31.7163V25.4429C31.7746 25.4006 31.8381 25.3635 31.9069 25.3423C31.9758 25.3211 32.0446 25.3105 32.1187 25.3105C32.1876 25.3105 32.2511 25.3211 32.3094 25.337C32.3676 25.3582 32.41 25.3847 32.4523 25.4217C32.4894 25.4588 32.5212 25.5012 32.5423 25.5541C32.5635 25.6071 32.5741 25.66 32.5741 25.7235V26.6872H32.267V25.75C32.267 25.6706 32.2511 25.6124 32.2193 25.5753C32.1876 25.5435 32.1452 25.5223 32.087 25.5223C32.034 25.5223 31.9864 25.5329 31.944 25.5541C31.9017 25.5753 31.8593 25.6018 31.8275 25.6335C31.7958 25.6653 31.7693 25.7024 31.7481 25.7447C31.7269 25.7871 31.7216 25.8294 31.7216 25.8771V26.6872H31.4092V25.3317H31.4039Z" fill="#00524C"/>
<path d="M33.31 26.2745L33.6488 25.332H33.9665L33.4688 26.6875H33.1564L32.6587 25.332H32.9817L33.31 26.2745Z" fill="#00524C"/>
<path d="M34.3745 26.0683C34.3798 26.1265 34.3904 26.1795 34.4063 26.2324C34.4222 26.2854 34.4487 26.333 34.4804 26.3701C34.5122 26.4124 34.544 26.4442 34.5863 26.4654C34.6287 26.4866 34.6711 26.5025 34.7187 26.5025C34.8723 26.5025 34.9835 26.4177 35.0417 26.243H35.3276C35.3117 26.3171 35.2853 26.386 35.2429 26.4442C35.2058 26.5025 35.1582 26.5554 35.0999 26.5925C35.047 26.6348 34.9835 26.6613 34.9146 26.6878C34.8458 26.709 34.777 26.7196 34.7081 26.7196C34.6075 26.7196 34.5175 26.6984 34.4328 26.6613C34.3534 26.6242 34.2845 26.5713 34.2263 26.5025C34.168 26.4336 34.1257 26.3595 34.0939 26.2748C34.0621 26.1901 34.0463 26.0948 34.0463 25.9994C34.0463 25.9094 34.0621 25.8194 34.0939 25.74C34.1257 25.6553 34.168 25.5864 34.2263 25.5229C34.2845 25.4594 34.3534 25.4117 34.4328 25.3747C34.5122 25.3376 34.6075 25.3164 34.7081 25.3164C34.8034 25.3164 34.8934 25.3323 34.9729 25.3641C35.0523 25.3958 35.1158 25.4435 35.1741 25.5017C35.227 25.56 35.2694 25.6288 35.3011 25.7082C35.3329 25.7877 35.3435 25.8777 35.3435 25.973V26.0736H34.3745V26.0683ZM35.0311 25.8777C35.0258 25.8247 35.0205 25.7824 35.0046 25.74C34.9888 25.6976 34.9676 25.6606 34.9358 25.6288C34.9093 25.597 34.8723 25.5706 34.8352 25.5547C34.7928 25.5388 34.7505 25.5282 34.7028 25.5282C34.6605 25.5282 34.6181 25.5388 34.581 25.5547C34.544 25.5759 34.5122 25.597 34.4804 25.6288C34.454 25.6606 34.4275 25.6976 34.4116 25.74C34.3957 25.7824 34.3851 25.8247 34.3798 25.8724H35.0311V25.8777Z" fill="#00524C"/>
<path d="M35.8622 26.2372C35.8622 26.2848 35.8728 26.3272 35.8834 26.3589C35.8993 26.3907 35.9152 26.4172 35.9364 26.4384C35.9576 26.4595 35.984 26.4754 36.0105 26.486C36.0423 26.4966 36.074 26.5019 36.1058 26.5019C36.1323 26.5019 36.1641 26.4966 36.1958 26.4913C36.2276 26.486 36.2541 26.4754 36.2805 26.4648C36.307 26.4489 36.3282 26.4331 36.3441 26.4066C36.36 26.3854 36.3706 26.3536 36.3706 26.3166C36.3706 26.2848 36.36 26.2583 36.3441 26.2319C36.3282 26.2107 36.307 26.1895 36.2805 26.1736C36.2541 26.1577 36.2223 26.1418 36.1852 26.126C36.1482 26.1101 36.1111 26.0995 36.074 26.0836C36.0158 26.0624 35.9576 26.0412 35.8993 26.0201C35.8411 25.9989 35.7881 25.9724 35.7458 25.9406C35.6981 25.9089 35.661 25.8718 35.6346 25.8294C35.6028 25.7871 35.5922 25.7341 35.5922 25.6706C35.5922 25.6071 35.6081 25.5541 35.6346 25.5118C35.661 25.4694 35.6981 25.427 35.7458 25.4006C35.7934 25.3688 35.8464 25.3476 35.9099 25.3317C35.9734 25.3158 36.037 25.3105 36.1058 25.3105C36.1799 25.3105 36.2488 25.3158 36.3176 25.3317C36.3811 25.3476 36.4394 25.3741 36.487 25.4059C36.5347 25.4376 36.5718 25.48 36.6035 25.5329C36.63 25.5859 36.6459 25.6441 36.6512 25.713H36.63C36.6194 25.713 36.6088 25.713 36.5929 25.713C36.5824 25.713 36.5665 25.713 36.5559 25.713H36.5347H36.3441C36.3388 25.6759 36.3282 25.6494 36.3176 25.6229C36.3017 25.6018 36.2858 25.5806 36.2647 25.5647C36.2435 25.5488 36.2223 25.5382 36.1958 25.5329C36.1694 25.5276 36.1429 25.5223 36.1111 25.5223C36.0476 25.5223 35.9946 25.5382 35.9628 25.5647C35.9258 25.5912 35.9099 25.6282 35.9099 25.6706C35.9099 25.7024 35.9205 25.7235 35.9364 25.75C35.9523 25.7712 35.9734 25.7924 35.9999 25.8083C36.0264 25.8241 36.0582 25.84 36.0952 25.8559C36.1323 25.8718 36.1694 25.8824 36.2064 25.8983C36.2647 25.9195 36.3229 25.9406 36.3811 25.9618C36.4394 25.983 36.4923 26.0095 36.5347 26.0412C36.5824 26.073 36.6194 26.1048 36.6459 26.1471C36.6724 26.1895 36.6882 26.2372 36.6882 26.2901C36.6882 26.3642 36.6724 26.4278 36.6406 26.4807C36.6088 26.5337 36.5665 26.576 36.5135 26.6131C36.4606 26.6449 36.397 26.6713 36.3282 26.6872C36.2594 26.7031 36.1852 26.7084 36.1058 26.7084C36.0317 26.7084 35.9576 26.6978 35.894 26.6766C35.8252 26.6554 35.7669 26.629 35.7193 26.5866C35.6663 26.5495 35.6293 26.4966 35.5975 26.4384C35.5657 26.3801 35.5499 26.3113 35.5446 26.2319H35.8622V26.2372Z" fill="#00524C"/>
<path d="M37.3076 24.9447V25.3313H37.5088V25.5431H37.3076V26.3691C37.3076 26.4167 37.3182 26.4538 37.3341 26.4697C37.3499 26.4856 37.3711 26.4961 37.3976 26.4961C37.4082 26.4961 37.4241 26.4961 37.4452 26.4909C37.4664 26.4856 37.5035 26.4803 37.5458 26.475V26.6762C37.5088 26.6868 37.4717 26.6921 37.4294 26.6974C37.3923 26.7027 37.3552 26.7079 37.3235 26.7079C37.2811 26.7079 37.2387 26.7026 37.2017 26.6921C37.1646 26.6815 37.1276 26.6656 37.1011 26.6444C37.0693 26.6232 37.0481 26.5915 37.0322 26.5597C37.0164 26.5226 37.0058 26.4803 37.0058 26.4326V25.5378H36.8046V25.326H37.0058V24.9395H37.3076V24.9447Z" fill="#00524C"/>
<path d="M37.7313 25.3317H38.0384V25.4323C38.0914 25.39 38.1496 25.3582 38.2132 25.337C38.2767 25.3158 38.3349 25.3105 38.3932 25.3105C38.462 25.3105 38.5203 25.3264 38.5838 25.3529C38.642 25.3794 38.695 25.427 38.7426 25.4906C38.7691 25.4588 38.8009 25.4323 38.8327 25.4111C38.8644 25.39 38.9015 25.3688 38.9386 25.3529C38.9756 25.337 39.0127 25.3264 39.0498 25.3211C39.0868 25.3158 39.1239 25.3105 39.1609 25.3105C39.2298 25.3105 39.2933 25.3211 39.3516 25.3423C39.4098 25.3635 39.4575 25.3953 39.4998 25.4323C39.5422 25.4694 39.5739 25.5118 39.5951 25.5647C39.6163 25.6176 39.6322 25.6706 39.6322 25.7288V26.6872H39.3251V25.7818C39.3251 25.7288 39.3198 25.6918 39.3039 25.6547C39.2933 25.6229 39.2774 25.5965 39.2562 25.5753C39.2351 25.5541 39.2139 25.5435 39.1927 25.5329C39.1715 25.5276 39.1451 25.5223 39.1239 25.5223C39.0921 25.5223 39.055 25.5329 39.0233 25.5488C38.9915 25.5647 38.9597 25.5912 38.9333 25.6176C38.9068 25.6494 38.8856 25.6812 38.8644 25.7235C38.8485 25.7659 38.838 25.8083 38.838 25.8559V26.6819H38.5308V25.7765C38.5308 25.7235 38.5256 25.6865 38.515 25.6494C38.5044 25.6176 38.4885 25.5912 38.4673 25.57C38.4514 25.5488 38.4302 25.5382 38.4091 25.5276C38.3879 25.5223 38.3667 25.517 38.3455 25.517C38.3032 25.517 38.2608 25.5276 38.2237 25.5488C38.1867 25.57 38.1549 25.6018 38.1284 25.6335C38.102 25.6653 38.0808 25.7077 38.0649 25.7447C38.049 25.7871 38.0437 25.8241 38.0437 25.8612V26.6766H37.7313V25.3317Z" fill="#00524C"/>
<path d="M40.1775 26.0683C40.1828 26.1265 40.1934 26.1795 40.2093 26.2324C40.2252 26.2854 40.2517 26.333 40.2834 26.3701C40.3152 26.4124 40.347 26.4442 40.3893 26.4654C40.4317 26.4866 40.474 26.5025 40.5217 26.5025C40.6752 26.5025 40.7864 26.4177 40.8447 26.243H41.1306C41.1147 26.3171 41.0882 26.386 41.0459 26.4442C41.0088 26.5025 40.9612 26.5554 40.9029 26.5925C40.85 26.6348 40.7864 26.6613 40.7176 26.6878C40.6488 26.709 40.5799 26.7196 40.5111 26.7196C40.4105 26.7196 40.3205 26.6984 40.2358 26.6613C40.1563 26.6242 40.0875 26.5713 40.0293 26.5025C39.971 26.4336 39.9287 26.3595 39.8969 26.2748C39.8651 26.1901 39.8492 26.0948 39.8492 25.9994C39.8492 25.9094 39.8651 25.8194 39.8969 25.74C39.9287 25.6553 39.971 25.5864 40.0293 25.5229C40.0875 25.4594 40.1563 25.4117 40.2358 25.3747C40.3152 25.3376 40.4105 25.3164 40.5111 25.3164C40.6064 25.3164 40.6964 25.3323 40.7758 25.3641C40.8553 25.3958 40.9188 25.4435 40.9771 25.5017C41.03 25.56 41.0724 25.6288 41.1041 25.7082C41.1359 25.7877 41.1465 25.8777 41.1465 25.973V26.0736H40.1775V26.0683ZM40.8341 25.8777C40.8288 25.8247 40.8235 25.7824 40.8076 25.74C40.7917 25.6976 40.7706 25.6606 40.7388 25.6288C40.7123 25.597 40.6752 25.5706 40.6382 25.5547C40.5958 25.5388 40.5535 25.5282 40.5058 25.5282C40.4635 25.5282 40.4211 25.5388 40.384 25.5547C40.347 25.5759 40.3152 25.597 40.2834 25.6288C40.2569 25.6606 40.2305 25.6976 40.2146 25.74C40.1987 25.7824 40.1881 25.8247 40.1828 25.8724H40.8341V25.8777Z" fill="#00524C"/>
<path d="M41.3478 25.3317H41.6602V25.4429C41.7184 25.4006 41.782 25.3635 41.8508 25.3423C41.9196 25.3211 41.9885 25.3105 42.0626 25.3105C42.1314 25.3105 42.195 25.3211 42.2532 25.337C42.3114 25.3582 42.3538 25.3847 42.3962 25.4217C42.4385 25.4588 42.465 25.5012 42.4862 25.5541C42.5074 25.6071 42.5179 25.66 42.5179 25.7235V26.6872H42.2108V25.75C42.2108 25.6706 42.195 25.6124 42.1632 25.5753C42.1314 25.5435 42.0891 25.5223 42.0308 25.5223C41.9779 25.5223 41.9302 25.5329 41.8879 25.5541C41.8455 25.5753 41.8031 25.6018 41.7714 25.6335C41.7396 25.6653 41.7131 25.7024 41.6919 25.7447C41.6708 25.7871 41.6655 25.8294 41.6655 25.8771V26.6872H41.3531V25.3317H41.3478Z" fill="#00524C"/>
<path d="M43.1373 24.9447V25.3313H43.3385V25.5431H43.1373V26.3691C43.1373 26.4167 43.1479 26.4538 43.1638 26.4697C43.1797 26.4856 43.2008 26.4961 43.2273 26.4961C43.2379 26.4961 43.2538 26.4961 43.275 26.4909C43.2961 26.4856 43.3332 26.4803 43.3756 26.475V26.6762C43.3385 26.6868 43.3014 26.6921 43.2591 26.6974C43.222 26.7027 43.1849 26.7079 43.1532 26.7079C43.1108 26.7079 43.0685 26.7026 43.0314 26.6921C42.9943 26.6815 42.9573 26.6656 42.9308 26.6444C42.899 26.6232 42.8778 26.5915 42.862 26.5597C42.8461 26.5226 42.8355 26.4803 42.8355 26.4326V25.5378H42.6343V25.326H42.8355V24.9395H43.1373V24.9447Z" fill="#00524C"/>
<defs>
<radialGradient id="paint0_radial_167_27606" cx="0" cy="0" r="1" gradientUnits="userSpaceOnUse" gradientTransform="translate(22.6157 8.12592) scale(7.3393)">
<stop stop-color="#7CA7AD"/>
<stop offset="0.1198" stop-color="#5F9396"/>
<stop offset="0.2874" stop-color="#3D7C7C"/>
<stop offset="0.4585" stop-color="#226967"/>
<stop offset="0.6324" stop-color="#0F5C58"/>
<stop offset="0.8106" stop-color="#04544F"/>
<stop offset="1" stop-color="#00524C"/>
</radialGradient>
</defs>
</svg>
